<svg version="1.0" xmlns="http://www.w3.org/2000/svg" width="128" height="128" viewBox="0 0 32 32"><g stroke="#000"><path d="M6.6 2.1C4.6 3.6 4 5.1 4 7.8c0 4-1.2 6.6-2.6 6-.5-.1-1 1.1-1.2 2.8-.2 2.4.3 3.6 2.2 5.1C3.7 22.8 5 25 5.2 26.6 5.6 30.3 8.9 32 16 32c7.7 0 10.4-1.6 10.8-6.3.2-2.1.7-3.5 1.1-3.2 1.6.9 4.3-3.3 3.9-6.2-.2-1.5-.7-2.6-1.2-2.5-1.4.6-2.6-2-2.6-6C28 2.2 24.6 0 16 0c-5.3 0-7.3.4-9.4 2.1zm18.2.5C26.5 3.7 27 5.1 27 8.2v4.1l-2.3-2.1c-2.6-2.4-5.7-2.8-7.5-1-.9.9-1.5.9-2.4 0-1.8-1.8-4.9-1.4-7.5 1L5 12.3V8.2C5 2.6 7.4 1 16 1c4.3 0 7.3.5 8.8 1.6zM14.5 11c.3.5-.1 1-.9 1-2.2 0-3 1.9-1.5 3.6 1.1 1.4 1 1.5-1.1 1.2-2.8-.3-3.8-3.1-2-5.3 1.4-1.7 4.6-2 5.5-.5zm8.8 1.1c1.5 2.5.1 4.9-2.9 4.9-2.3 0-2.5-.2-1.3-1.6 1.1-1.4 1.1-1.8-.4-2.9-.9-.6-1.4-1.5-1-1.9 1.2-1.1 4.5-.2 5.6 1.5zM4 19.2c0 2.6-.2 2.9-1.5 1.8-.8-.7-1.5-2.6-1.5-4.2 0-2.6.2-2.9 1.5-1.8.8.7 1.5 2.6 1.5 4.2zm25.6 1.6c-1.5 1.5-1.6 1.4-1.6-1.4 0-1.6.6-3.6 1.3-4.3 1-1 1.3-.7 1.5 1.5.2 1.5-.3 3.4-1.2 4.2zM16 18.7c7.1 0 8.3-.2 9.6-2.1 1.4-1.9 1.5-1.6.9 4.9-.4 3.8-1.1 7.4-1.7 8-.5.5-4.5 1-8.8 1-4.3 0-8.3-.5-8.9-1-.5-.6-1.2-4.2-1.6-8-.6-6.5-.6-6.8.9-4.9 1.3 1.9 2.5 2.1 9.6 2.1z" stroke-width=".1"/><path d="M7 6c-1.1.7-.5.8 2 .4 4.3-.8 5.1-1.4 1.9-1.4-1.3 0-3.1.5-3.9 1zM19.1 5.4c.2.2 2 .6 3.9 1 2.5.4 3.1.3 2-.4-1.4-.9-6.9-1.5-5.9-.6zM12.5 21.1c-.8 1.2 1.1 2.9 3.5 2.9s4.3-1.7 3.5-2.9c-.5-.9-1.1-.7-2.1.6-1.4 1.7-1.4 1.7-2.8 0-1-1.3-1.6-1.5-2.1-.6z" stroke-width=".1"/><path d="M8.7 24.5c.2.8 2 1.9 3.9 2.5 3.8 1.3 9.8-.1 10.7-2.5.5-1.1.1-1.1-2.1.1-1.5.8-3.8 1.4-5.2 1.4-1.4 0-3.7-.6-5.2-1.4-2.2-1.2-2.6-1.2-2.1-.1z" stroke-width=".1"/></g></svg>