<svg xmlns="http://www.w3.org/2000/svg" width="512" height="160" viewBox="-76 -16 512 128" class="looka-1j8o68f"><svg
    width="112" height="112" viewBox="266.296 174.721 126.49 113.522">
    <path
      d="M371.614 223.984q5.55-17.38-1.174-34.527l17.367-.59c6.188 11.37 6.642 22.878 1.174 34.527Zm-45.387 45.832c0 3.429-3.195 6.209-7.136 6.209h-37.966c-3.94 0-7.136-2.78-7.136-6.21v-33.033c0-3.43 3.195-6.21 7.136-6.21h37.966c3.941 0 7.136 2.78 7.136 6.21z"
      fill="#4cc174" />
    <path
      d="M333.037 226.273c0 3.43-3.195 6.21-7.136 6.21h-37.966c-3.94 0-7.136-2.78-7.136-6.21v-33.034c0-3.429 3.195-6.209 7.136-6.209h37.966c3.94 0 7.136 2.78 7.136 6.21zm47.121 41.195c0 3.42-3.004 6.194-6.71 6.194h-35.7c-3.707 0-6.711-2.773-6.711-6.194V234.52c0-3.42 3.004-6.193 6.71-6.193h35.7c3.707 0 6.711 2.773 6.711 6.193z"
      fill="#078b62" />
    <path
      d="M388.25 222.306c0 3.237-3.197 5.861-7.139 5.861h-37.975c-3.943 0-7.139-2.624-7.139-5.86v-31.183c0-3.237 3.196-5.862 7.139-5.862h37.975c3.942 0 7.138 2.625 7.138 5.862z"
      fill="#4cc174" />
    <path
      d="M266.296 275.466v-16.961q0-15.242 7.784-22.863-3.73-1.557-4.962-4.606-1.265-3.048-1.265-6.94 0-12.582 3.989-21.63 3.956-9.016 11.286-14.853 7.296-5.838 17.901-8.66 10.572-2.788 23.804-2.788 4.216 0 6.842 1.005 2.66 1.006 4.151 2.724 1.46 1.72 2.011 4.054t.551 4.994v16.961q0 7.621-1.653 13.232-1.622 5.61-5.19 9.502 4.022 1.394 5.449 4.507 1.394 3.114 1.394 7.167 0 12.583-4.215 21.631-4.184 9.016-11.837 14.853-7.622 5.838-18.42 8.66-10.832 2.788-24.064 2.788-4.216 0-6.843-1.005-2.659-1.006-4.118-2.724-1.492-1.72-2.043-4.054t-.552-4.994m58.861-37.814h-22.733q-5.287 0-9.405.843-4.151.876-6.94 3.114-2.79 2.27-4.281 6.161-1.492 3.892-1.492 9.956v18.064q11.221 0 19.62-1.719t14.01-6.064 8.4-11.74q2.821-7.394 2.821-18.615m-44.072-10.896h22.733q5.286 0 9.178-.843 3.891-.876 6.388-3.114 2.498-2.27 3.73-6.161 1.265-3.892 1.265-9.956v-18.064q-11.221 0-19.394 1.719t-13.458 6.064-7.848 11.74q-2.594 7.394-2.594 18.615"
      fill="#050505" />
    <path
      d="M357.46 219.237h21.551q4.013 0 6.513 1.087 2.5 1.056 3.933 2.91 1.433 1.823 1.916 4.382.514 2.526.523 5.436l.005 1.535q.08 25.648-13.08 38.152-13.158 12.504-40.683 12.504-4.013 0-6.514-1.087-2.5-1.056-3.932-2.91-1.433-1.823-1.916-4.382-.514-2.526-.523-5.436l-.106-34.09q-.055-17.493 2.196-29.454 2.222-11.992 8.263-19.347 6.04-7.356 16.732-10.586 10.69-3.23 27.545-3.23 3.983 0 6.22 2.463 2.207 2.462 2.226 8.283l.004 1.535h-8.412q-12.841 0-20.831 1.854-7.99 1.823-12.524 6.364-4.564 4.51-6.324 12.057-1.76 7.515-2.14 18.868 2.961-3.39 7.682-5.149 4.691-1.759 11.677-1.759m21.59 12.28H357.5q-4.994 0-8.618.832-3.623.863-6.054 3.006t-3.607 6.14q-1.207 3.997-1.187 10.138l.066 21.33q10.701 0 18.394-1.855 7.693-1.823 12.762-6.428 5.039-4.605 7.451-12.664 2.383-8.059 2.344-20.499"
      fill="#050505" />
  </svg>
  <path
    d="M133.733 14.662c9.43 0 13.484 4.384 13.484 13.319v2.068c0 5.956-1.82 9.679-5.874 11.582v.165c4.881 1.903 6.784 6.205 6.784 12.326v4.716c0 8.934-4.715 13.732-13.815 13.732H120V14.662zm-.58 31.85H129.1v17.786h5.212c3.06 0 4.715-1.407 4.715-5.708v-5.047c0-5.377-1.737-7.031-5.873-7.031m.331-23.578H129.1V38.24h3.557c3.392 0 5.46-1.49 5.46-6.122v-3.226c0-4.137-1.406-5.957-4.633-5.957m40.288-8.272 9.266 57.908h-9.183l-1.572-10.506h-11.168l-1.572 10.506h-8.355l9.265-57.908zm-7.197 10.258-4.302 29.285h8.77L166.74 24.92zm48.974 47.65h-9.265c-.496-1.489-.827-2.399-.827-7.114v-9.1c0-5.377-1.82-7.363-5.957-7.363h-3.143V72.57h-9.1V14.662h13.732c9.431 0 13.485 4.384 13.485 13.319v4.55c0 5.956-1.903 9.762-5.956 11.664v.166c4.55 1.902 6.039 6.204 6.039 12.243v8.935c0 2.812.082 4.88.992 7.031m-14.808-49.636h-4.384v17.787h3.557c3.392 0 5.46-1.49 5.46-6.122V28.89c0-4.137-1.406-5.957-4.633-5.957m48.064 49.636h-9.265c-.496-1.489-.827-2.399-.827-7.114v-9.1c0-5.377-1.82-7.363-5.957-7.363h-3.143V72.57h-9.1V14.662h13.733c9.43 0 13.484 4.384 13.484 13.319v4.55c0 5.956-1.903 9.762-5.956 11.664v.166c4.55 1.902 6.039 6.204 6.039 12.243v8.935c0 2.812.082 4.88.992 7.031m-14.808-49.636h-4.384v17.787h3.557c3.392 0 5.46-1.49 5.46-6.122V28.89c0-4.137-1.406-5.957-4.633-5.957m28.872 0v16.132h12.492v8.273h-12.492v16.959h15.718v8.272h-24.818V14.662h24.818v8.272zm18.696 0v-8.272h28.127v8.272h-9.513V72.57h-9.1V22.934zm29.45 0v-8.272h28.128v8.272h-9.514V72.57h-9.1V22.934zm40.454 5.047v31.27c0 4.137 1.82 5.709 4.716 5.709s4.715-1.572 4.715-5.709V27.98c0-4.137-1.82-5.708-4.715-5.708s-4.716 1.571-4.716 5.708m-9.1 30.691V28.56c0-9.265 4.881-14.56 13.816-14.56S370 19.295 370 28.56v30.112c0 9.266-4.88 14.56-13.815 14.56s-13.816-5.294-13.816-14.56m-221.608 42.012c-.466 0-.761-.294-.761-.761s.295-.737.761-.737c.443 0 .737.27.737.737s-.294.761-.737.761m20.173.099c-2.579 0-4.126-1.769-4.273-4.299h.786c.196 2.21 1.424 3.537 3.487 3.537 2.186 0 3.414-1.473 3.414-3.414 0-4.52-7.54-4.716-7.54-9.653 0-2.284 1.695-3.954 4.077-3.954s3.93 1.67 4.102 4.25h-.786c-.196-2.26-1.4-3.489-3.291-3.489-1.94 0-3.316 1.302-3.316 3.193 0 4.397 7.565 4.569 7.565 9.653 0 2.284-1.597 4.176-4.225 4.176m24.373 0c-2.849 0-4.642-1.842-4.642-5.183v-7.393c0-3.39 1.793-5.207 4.642-5.207s4.642 1.818 4.642 5.207V95.6c0 3.34-1.793 5.183-4.642 5.183m0-.762c2.383 0 3.856-1.498 3.856-4.42v-7.394c0-2.947-1.473-4.446-3.856-4.446s-3.831 1.499-3.831 4.446V95.6c0 2.923 1.449 4.421 3.831 4.421m28.573-15.99h-6.656v7.615h6.165v.737h-6.165v8.105h-.786V83.295h7.442zm22.728-.736v.737h-3.93v16.456h-.786V84.032h-3.856v-.737zm28.745 0h.835l-3.71 17.193h-.908l-2.554-11.618c-.246-1.203-.516-2.824-.713-4.028h-.024a116 116 0 0 1-.737 4.028l-2.554 11.618h-.91l-3.708-17.193h.835l2.58 12.452c.245 1.155.564 2.604.736 3.611h.024c.197-1.007.492-2.382.762-3.684l2.53-12.134h.884l2.505 11.888c.27 1.376.565 2.874.786 3.93h.025c.196-1.056.54-2.603.786-3.832zm23.587 17.193-1.228-4.716h-5.944l-1.228 4.716h-.836l4.593-17.193h.885l4.593 17.193zm-6.976-5.428h5.551l-1.818-7c-.343-1.302-.663-2.628-.957-3.734-.295 1.106-.614 2.432-.958 3.734zm30.587 5.428-4.15-7.221h-2.604v7.22h-.786V83.296h3.365c3.168 0 4.79 1.72 4.79 4.888 0 2.996-1.474 4.838-3.906 5.06l4.175 7.245zm-6.754-16.456v8.473h3.045c2.162 0 3.537-1.449 3.537-4.298 0-2.8-1.35-4.175-4.003-4.175zm24.176 15.719h6.902v.737h-7.688V83.295h7.614v.737h-6.828v7.344h6.313v.736h-6.313z"
    fill="#050505" />
</svg>