<svg width="200" height="140" viewBox="-18 -8 192 128">
  <path fill="#fd7014" d="M96.476 2.313a1.12 1.12 0 0 0-1.237.324 28.15 28.15 0 0 1-21.442 9.893l-11.784.006a4.476 4.476 0 0 0-4.469 4.469v8.474a4.476 4.476 0 0 0 4.469 4.469h3.257v4.698h-4.667a6.7 6.7 0 0 0-4.999 2.241c-1.023 1.14-2.227 2.885-3.972 2.768h-3.586c-1.455.02-1.477 2.21 0 2.235h3.586a5.6 5.6 0 0 0 4.167-1.867l1.469-1.647a4.47 4.47 0 0 1 3.335-1.492h4.667v2.771h-1.58c-1.467.022-1.469 2.209 0 2.234l9.258.003a3.357 3.357 0 0 1 3.349 3.352v7.281a5.593 5.593 0 0 1-5.587 5.586h-7.415c-2.986 0-5.77-.865-8.091-2.531-1.215-.871-2.474-1.773-4.086-2.128-.674-.2-2.338-.156-3.07-.154a1.117 1.117 0 0 0-1.117 1.117c.092 1.804 2.538.815 3.709 1.22 1.164.258 2.184.989 3.303 1.791 2.663 1.911 5.897 2.919 9.352 2.919h7.415c4.313 0 7.821-3.508 7.821-7.82v-7.282c0-2.646-1.852-4.855-4.324-5.43V29.96a28.14 28.14 0 0 1 21.029 9.881c.626.79 2.005.279 1.967-.727V3.363c0-.469-.291-.885-.732-1.047zm-28.97 27.632h4.469v9.708l-4.469-.003zm27.467 6.343a30.36 30.36 0 0 0-20.764-8.568v-8.488a1.117 1.117 0 1 0-2.234 0v8.475l-9.96.003a2.24 2.24 0 0 1-2.235-2.234v-8.474a2.24 2.24 0 0 1 2.235-2.235l11.783-.005a30.38 30.38 0 0 0 21.174-8.58zm9.217-18.962h4.19c1.466-.022 1.469-2.212 0-2.234h-2.235v-1.117a1.117 1.117 0 1 0-2.235 0v1.145c-4.588.447-4.334 7.131.28 7.234h1.676c1.835.031 1.835 2.762 0 2.793h-4.19c-1.466.022-1.469 2.212 0 2.234h2.234v1.117a1.117 1.117 0 1 0 2.234 0v-1.146c4.589-.447 4.336-7.13-.279-7.234h-1.676c-1.835-.031-1.835-2.762 0-2.793m3.4-16.989-6.704 6.703c-.712.662-.167 1.941.791 1.908.284 0 .572-.11.79-.328l6.704-6.704c1.028-1.033-.542-2.611-1.58-1.58zm-5.122 33.517c-1.033-1.028-2.611.542-1.58 1.58l6.703 6.704c1.037 1.027 2.609-.542 1.581-1.581z"/>
  <path fill="#111" d="M8.641 69.279c3.79 0 8.93 2.891 8.127 9.894H3.469c.514 2.987 2.891 4.465 5.589 4.465 2.217 0 3.405-.578 4.626-1.542l1.96 1.863c-1.478 1.67-3.598 2.634-6.681 2.634C4.722 86.593 0 83.702 0 77.952c0-5.782 4.851-8.673 8.641-8.673m0 2.987c-2.152 0-4.561 1.445-5.14 4.369h10.215c-.385-2.923-2.923-4.369-5.075-4.369m17.153 14.262c-3.212 0-6.36-2.088-6.36-7.292v-9.669h3.469v9.476c0 3.18 1.51 4.433 3.662 4.433 2.762 0 4.561-2.57 4.947-4.208v-9.701h3.469v16.704h-3.469v-3.534c-.321 1.028-2.248 3.79-5.718 3.79m20.719-17.248c3.02 0 5.621 1.349 7.131 4.048l-2.698 1.22c-.996-1.349-2.345-2.184-4.401-2.184-2.473 0-5.3 1.863-5.3 5.59 0 3.694 2.827 5.525 5.3 5.525 2.056 0 3.405-.803 4.401-2.152l2.73 1.22c-1.542 2.699-4.112 4.015-7.163 4.015-3.79 0-8.641-2.794-8.641-8.608 0-5.782 4.851-8.673 8.641-8.673m17.892 0c3.791 0 8.642 2.891 8.642 8.673 0 5.814-4.851 8.641-8.641 8.641s-8.641-2.827-8.641-8.641c0-5.782 4.85-8.673 8.641-8.673m0 3.084c-2.441 0-5.268 1.863-5.268 5.589 0 3.694 2.827 5.557 5.268 5.557s5.268-1.863 5.268-5.557c0-3.726-2.827-5.59-5.268-5.59m32.315-3.051c3.212 0 6.392 2.056 6.392 7.484v9.476h-3.469v-9.476c0-2.859-1.445-4.433-3.887-4.433-2.538 0-4.08 2.12-4.497 4.208v9.701h-3.469v-9.476c0-2.859-1.766-4.433-3.919-4.433-2.666 0-4.112 2.12-4.465 4.208v9.701h-3.469V69.568h3.469v3.63c.128-1.06 1.766-3.887 5.268-3.887 2.281 0 4.786 1.253 5.943 4.015.514-1.446 2.505-4.015 6.103-4.015m18.663-.032c3.79 0 8.32 2.891 8.32 8.641 0 5.846-4.529 8.673-8.32 8.673-3.019 0-5.011-1.734-5.428-3.084v8.866h-3.469V69.568h3.469v2.602c.417-1.092 2.409-2.891 5.428-2.891m-.45 14.23c2.602 0 5.397-1.863 5.397-5.589 0-3.694-2.794-5.557-5.397-5.557s-5.14 1.831-5.14 5.557c0 3.758 2.538 5.589 5.14 5.589m21.136-14.198c.353 0 .674 0 .996.064v3.308c-.321-.064-.643-.064-.9-.064-3.148 0-5.718 2.249-6.103 5.782v7.87h-3.469V69.567h3.469v4.272c.707-2.473 2.859-4.529 6.007-4.529m11.725-.032c3.79 0 8.641 2.891 8.641 8.673 0 5.814-4.85 8.641-8.641 8.641s-8.641-2.827-8.641-8.641c0-5.782 4.85-8.673 8.641-8.673m0 3.084c-2.441 0-5.268 1.863-5.268 5.589 0 3.694 2.827 5.557 5.268 5.557s5.268-1.863 5.268-5.557c0-3.726-2.827-5.59-5.268-5.59"/>
  <path fill="#fd7014" d="M45.147 107.205c-.542 0-.897-.356-.897-.897s.356-.897.897-.897.897.356.897.897-.356.897-.897.897M57.88 96.99c1.638 0 2.764 1.055 3.234 2.08l-1.168.67c-.498-.84-1.14-1.353-2.065-1.353s-1.581.541-1.581 1.282c0 .698.442 1.125 1.396 1.481l.698.257c1.98.727 2.992 1.581 2.992 3.077 0 1.837-1.752 2.863-3.448 2.863-1.738 0-3.134-1.04-3.561-2.45l1.225-.627c.356.912 1.125 1.652 2.336 1.652.997 0 1.824-.527 1.824-1.424 0-.955-.641-1.339-1.781-1.767l-.684-.256c-1.496-.556-2.55-1.311-2.55-2.864 0-1.51 1.368-2.621 3.134-2.621m18.375.171h1.567v9.972h-1.567v-4.217H71.64v4.217h-1.567v-9.972h1.567v4.302h4.616zm15.525-.143c2.678 0 5.129 2.108 5.129 5.129s-2.451 5.128-5.129 5.128-5.128-2.108-5.128-5.128 2.45-5.129 5.128-5.129m0 8.776c1.838 0 3.505-1.51 3.505-3.647S93.619 98.5 91.782 98.5s-3.505 1.51-3.505 3.647 1.667 3.647 3.505 3.647m17.306-8.633c2.237 0 3.604 1.368 3.604 3.291s-1.368 3.205-3.604 3.205h-1.781v3.476h-1.567v-9.972zm-.072 5.128c1.268 0 2.109-.598 2.109-1.837s-.84-1.838-2.108-1.838h-1.71v3.675z"/>
</svg>
