<svg xmlns="http://www.w3.org/2000/svg" width="512" height="512" viewBox="0 0 200 200">
  <rect x="0" y="0" width="200" height="200" rx="20" fill="#FCFCFA" />

  <g transform="translate(0, 32)">
    <svg width="200" height="140" viewBox="-18 -8 192 128">
      <defs>
        <linearGradient id="gradient">
          <stop stop-color="#ef4136" offset="0" />
          <stop stop-color="#fbb040" offset="1" />
        </linearGradient>
      </defs>

      <g fill="#4e4e4e" transform="scale(.8) translate(44 -16)">
        <path d="m59.824 90.625h-10.371c-4.1758 0-8.0703-1.2109-11.316-3.5391-1.6992-1.2188-3.4609-2.4805-5.7148-2.9766-0.72656-0.42578-11.09-0.13672-12.105-0.21484-2.0273 0.015625-2.0703 3.0977 0 3.125l10.484-0.007812c2.1133 0.17188 3.7031 1.3086 5.5742 2.6523 3.7227 2.6719 8.2461 4.082 13.078 4.082h10.371c6.0312 0 10.938-4.9062 10.938-10.938v-10.184c0-4.3047-3.5039-7.8125-7.8086-7.8125h-0.45312v-12.164c10.684-2.1797 18.75-11.648 18.75-22.965 0-4.7852-1.4414-9.3984-4.168-13.344-0.49219-0.71094-1.4648-0.88672-2.1719-0.39453-0.71094 0.49219-0.88672 1.4648-0.39453 2.1719 2.3633 3.418 3.6133 7.418 3.6133 11.566 0 11.199-9.1133 20.312-20.312 20.312-26.945-1.1133-26.941-39.516 0-40.625 4.1484 0 8.1484 1.25 11.566 3.6133 1.6914 1.1562 3.4531-1.3867 1.7773-2.5703-15.156-10.801-37.016 0.64063-36.781 19.27 0 11.316 8.0664 20.785 18.75 22.965v5.1602h-7.4375c-2.668 0-5.2188 1.1406-6.9922 3.1328-1.4297 1.5898-3.1094 4.0352-5.5547 3.8711h-12.828c-0.86328 0-1.5625 0.69922-1.5625 1.5625s0.69922 1.5625 1.5625 1.5625h12.828c2.2227 0 4.3477-0.94922 5.8281-2.6094l2.0547-2.3047c1.1836-1.3242 2.8828-2.0859 4.6641-2.0859h7.4375v3.875h-3.125c-0.86328 0-1.5625 0.69922-1.5625 1.5625s0.69922 1.5625 1.5625 1.5625l12.949 0.003906c2.582 0 4.6836 2.1055 4.6836 4.6875v10.184c0 4.3086-3.5039 7.8125-7.8125 7.8125zm-3.5742-37.578c1.0312 0.097656 2.0938 0.097656 3.125 0v11.77h-3.125z" />
        <path d="m56.641 24.219h5.8594c2.0508-0.03125 2.0547-3.0938 0-3.125h-3.125v-1.5625c0-0.86328-0.69922-1.5625-1.5625-1.5625s-1.5625 0.69922-1.5625 1.5625v1.6016c-6.418 0.625-6.0625 9.9727 0.39062 10.117h2.3438c2.5664 0.042969 2.5664 3.8633 0 3.9062h-5.8594c-2.0508 0.03125-2.0547 3.0938 0 3.125h3.125v1.5625c0 0.86328 0.69922 1.5625 1.5625 1.5625s1.5625-0.69922 1.5625-1.5625v-1.6016c6.418-0.625 6.0625-9.9727-0.39062-10.117h-2.3438c-2.5664-0.042969-2.5664-3.8633 0-3.9062z" />
      </g>

      <path fill="url(#gradient)" d="M8.641 69.279c3.79 0 8.93 2.891 8.127 9.894H3.469c.514 2.987 2.891 4.465 5.589 4.465 2.217 0 3.405-.578 4.626-1.542l1.96 1.863c-1.478 1.67-3.598 2.634-6.681 2.634C4.722 86.593 0 83.702 0 77.952c0-5.782 4.851-8.673 8.641-8.673m0 2.987c-2.152 0-4.561 1.445-5.14 4.369h10.215c-.385-2.923-2.923-4.369-5.075-4.369m17.153 14.262c-3.212 0-6.36-2.088-6.36-7.292v-9.669h3.469v9.476c0 3.18 1.51 4.433 3.662 4.433 2.762 0 4.561-2.57 4.947-4.208v-9.701h3.469v16.704h-3.469v-3.534c-.321 1.028-2.248 3.79-5.718 3.79m20.719-17.248c3.02 0 5.621 1.349 7.131 4.048l-2.698 1.22c-.996-1.349-2.345-2.184-4.401-2.184-2.473 0-5.3 1.863-5.3 5.59 0 3.694 2.827 5.525 5.3 5.525 2.056 0 3.405-.803 4.401-2.152l2.73 1.22c-1.542 2.699-4.112 4.015-7.163 4.015-3.79 0-8.641-2.794-8.641-8.608 0-5.782 4.851-8.673 8.641-8.673m17.892 0c3.791 0 8.642 2.891 8.642 8.673 0 5.814-4.851 8.641-8.641 8.641s-8.641-2.827-8.641-8.641c0-5.782 4.85-8.673 8.641-8.673m0 3.084c-2.441 0-5.268 1.863-5.268 5.589 0 3.694 2.827 5.557 5.268 5.557s5.268-1.863 5.268-5.557c0-3.726-2.827-5.59-5.268-5.59m32.315-3.051c3.212 0 6.392 2.056 6.392 7.484v9.476h-3.469v-9.476c0-2.859-1.445-4.433-3.887-4.433-2.538 0-4.08 2.12-4.497 4.208v9.701h-3.469v-9.476c0-2.859-1.766-4.433-3.919-4.433-2.666 0-4.112 2.12-4.465 4.208v9.701h-3.469V69.568h3.469v3.63c.128-1.06 1.766-3.887 5.268-3.887 2.281 0 4.786 1.253 5.943 4.015.514-1.446 2.505-4.015 6.103-4.015m18.663-.032c3.79 0 8.32 2.891 8.32 8.641 0 5.846-4.529 8.673-8.32 8.673-3.019 0-5.011-1.734-5.428-3.084v8.866h-3.469V69.568h3.469v2.602c.417-1.092 2.409-2.891 5.428-2.891m-.45 14.23c2.602 0 5.397-1.863 5.397-5.589 0-3.694-2.794-5.557-5.397-5.557s-5.14 1.831-5.14 5.557c0 3.758 2.538 5.589 5.14 5.589m21.136-14.198c.353 0 .674 0 .996.064v3.308c-.321-.064-.643-.064-.9-.064-3.148 0-5.718 2.249-6.103 5.782v7.87h-3.469V69.567h3.469v4.272c.707-2.473 2.859-4.529 6.007-4.529m11.725-.032c3.79 0 8.641 2.891 8.641 8.673 0 5.814-4.85 8.641-8.641 8.641s-8.641-2.827-8.641-8.641c0-5.782 4.85-8.673 8.641-8.673m0 3.084c-2.441 0-5.268 1.863-5.268 5.589 0 3.694 2.827 5.557 5.268 5.557s5.268-1.863 5.268-5.557c0-3.726-2.827-5.59-5.268-5.59" />
      <path fill="#4e4e4e" d="M45.147 107.205c-.542 0-.897-.356-.897-.897s.356-.897.897-.897.897.356.897.897-.356.897-.897.897M57.88 96.99c1.638 0 2.764 1.055 3.234 2.08l-1.168.67c-.498-.84-1.14-1.353-2.065-1.353s-1.581.541-1.581 1.282c0 .698.442 1.125 1.396 1.481l.698.257c1.98.727 2.992 1.581 2.992 3.077 0 1.837-1.752 2.863-3.448 2.863-1.738 0-3.134-1.04-3.561-2.45l1.225-.627c.356.912 1.125 1.652 2.336 1.652.997 0 1.824-.527 1.824-1.424 0-.955-.641-1.339-1.781-1.767l-.684-.256c-1.496-.556-2.55-1.311-2.55-2.864 0-1.51 1.368-2.621 3.134-2.621m18.375.171h1.567v9.972h-1.567v-4.217H71.64v4.217h-1.567v-9.972h1.567v4.302h4.616zm15.525-.143c2.678 0 5.129 2.108 5.129 5.129s-2.451 5.128-5.129 5.128-5.128-2.108-5.128-5.128 2.45-5.129 5.128-5.129m0 8.776c1.838 0 3.505-1.51 3.505-3.647S93.619 98.5 91.782 98.5s-3.505 1.51-3.505 3.647 1.667 3.647 3.505 3.647m17.306-8.633c2.237 0 3.604 1.368 3.604 3.291s-1.368 3.205-3.604 3.205h-1.781v3.476h-1.567v-9.972zm-.072 5.128c1.268 0 2.109-.598 2.109-1.837s-.84-1.838-2.108-1.838h-1.71v3.675z" />
    </svg>
  </g>
</svg>