<svg xmlns="http://www.w3.org/2000/svg" width="64" height="64" viewBox="46 -2 64 64">
  <defs>
    <linearGradient id="gradient">
      <stop stop-color="#ef4136" offset="0"/>
      <stop stop-color="#fbb040" offset="1"/>
    </linearGradient>
  </defs>
  <path fill="url(#gradient)" d="M96.476 2.313a1.12 1.12 0 0 0-1.237.324 28.15 28.15 0 0 1-21.442 9.893l-11.784.006a4.476 4.476 0 0 0-4.469 4.469v8.474a4.476 4.476 0 0 0 4.469 4.469h3.257v4.698h-4.667a6.7 6.7 0 0 0-4.999 2.241c-1.023 1.14-2.227 2.885-3.972 2.768h-3.586c-1.455.02-1.477 2.21 0 2.235h3.586a5.6 5.6 0 0 0 4.167-1.867l1.469-1.647a4.47 4.47 0 0 1 3.335-1.492h4.667v2.771h-1.58c-1.467.022-1.469 2.209 0 2.234l9.258.003a3.357 3.357 0 0 1 3.349 3.352v7.281a5.593 5.593 0 0 1-5.587 5.586h-7.415c-2.986 0-5.77-.865-8.091-2.531-1.215-.871-2.474-1.773-4.086-2.128-.674-.2-2.338-.156-3.07-.154a1.117 1.117 0 0 0-1.117 1.117c.092 1.804 2.538.815 3.709 1.22 1.164.258 2.184.989 3.303 1.791 2.663 1.911 5.897 2.919 9.352 2.919h7.415c4.313 0 7.821-3.508 7.821-7.82v-7.282c0-2.646-1.852-4.855-4.324-5.43V29.96a28.14 28.14 0 0 1 21.029 9.881c.626.79 2.005.279 1.967-.727V3.363c0-.469-.291-.885-.732-1.047zm-28.97 27.632h4.469v9.708l-4.469-.003zm27.467 6.343a30.36 30.36 0 0 0-20.764-8.568v-8.488a1.117 1.117 0 1 0-2.234 0v8.475l-9.96.003a2.24 2.24 0 0 1-2.235-2.234v-8.474a2.24 2.24 0 0 1 2.235-2.235l11.783-.005a30.38 30.38 0 0 0 21.174-8.58zm9.217-18.962h4.19c1.466-.022 1.469-2.212 0-2.234h-2.235v-1.117a1.117 1.117 0 1 0-2.235 0v1.145c-4.588.447-4.334 7.131.28 7.234h1.676c1.835.031 1.835 2.762 0 2.793h-4.19c-1.466.022-1.469 2.212 0 2.234h2.234v1.117a1.117 1.117 0 1 0 2.234 0v-1.146c4.589-.447 4.336-7.13-.279-7.234h-1.676c-1.835-.031-1.835-2.762 0-2.793m3.4-16.989-6.704 6.703c-.712.662-.167 1.941.791 1.908.284 0 .572-.11.79-.328l6.704-6.704c1.028-1.033-.542-2.611-1.58-1.58zm-5.122 33.517c-1.033-1.028-2.611.542-1.58 1.58l6.703 6.704c1.037 1.027 2.609-.542 1.581-1.581z"/>
</svg>
