<svg xmlns="http://www.w3.org/2000/svg" width="512" height="512" viewBox="0 0 200 200">
  <rect x="0" y="0" width="200" height="200" rx="20" fill="#fcfcfa" />

  <g fill="#4e4e4e" transform="matrix(4,0,0,4,0,0)">
    <path transform="matrix(1.3,0,0,1.2,-7.2,-5.4)" d="M 38.9 14.4 h -28 c -0.4 0 -0.8 0.3 -0.8 0.8 v 0 v 22 c 0 0.4 0.3 0.8 0.8 0.8 h 7.3 v 5.3 c 0 0.3 0.2 0.5 0.4 0.7 l 0 0 c 0.1 0.1 0.2 0.1 0.3 0.1 c 0 0 0 0 0 0 h 0 c 0.2 0 0.3 -0.1 0.5 -0.2 l 0 0 l 7.8 -5.8 h 11.8 c 0.4 0 0.8 -0.3 0.8 -0.8 v 0 v -22 c 0 -0.4 -0.3 -0.8 -0.8 -0.8 v 0 z M 38.2 36.4 h -11.3 c -0.2 0 -0.3 0.1 -0.5 0.2 l 0 0 l -6.8 5.1 v -4.5 c 0 -0.4 -0.3 -0.8 -0.8 -0.8 h -7.3 v -20.5 h 26.5 z" />
  </g>

  <svg x="30" y="30" width="140" height="140" viewBox="-24 -24 200 200">
    <defs>
      <linearGradient id="gradient">
        <stop stop-color="#ef4136" offset="0" />
        <stop stop-color="#fbb040" offset="1" />
      </linearGradient>
    </defs>


    <path fill="url(#gradient)"
      d="M 8.6 69.3 c 3.8 0 8.9 2.9 8.1 9.9 H 3.5 c 0.5 3 2.9 4.5 5.6 4.5 c 2.2 0 3.4 -0.6 4.6 -1.5 l 2 1.9 c -1.5 1.7 -3.6 2.6 -6.7 2.6 C 4.7 86.6 0 83.7 0 78 c 0 -5.8 4.9 -8.7 8.6 -8.7 m 0 3 c -2.2 0 -4.6 1.4 -5.1 4.4 h 10.2 c -0.4 -2.9 -2.9 -4.4 -5.1 -4.4 m 17.2 14.3 c -3.2 0 -6.4 -2.1 -6.4 -7.3 v -9.7 h 3.5 v 9.5 c 0 3.2 1.5 4.4 3.7 4.4 c 2.8 0 4.6 -2.6 4.9 -4.2 v -9.7 h 3.5 v 16.7 h -3.5 v -3.5 c -0.3 1 -2.2 3.8 -5.7 3.8 m 20.7 -17.2 c 3 0 5.6 1.3 7.1 4 l -2.7 1.2 c -1 -1.3 -2.3 -2.2 -4.4 -2.2 c -2.5 0 -5.3 1.9 -5.3 5.6 c 0 3.7 2.8 5.5 5.3 5.5 c 2.1 0 3.4 -0.8 4.4 -2.2 l 2.7 1.2 c -1.5 2.7 -4.1 4 -7.2 4 c -3.8 0 -8.6 -2.8 -8.6 -8.6 c 0 -5.8 4.9 -8.7 8.6 -8.7 m 17.9 0 c 3.8 0 8.6 2.9 8.6 8.7 c 0 5.8 -4.9 8.6 -8.6 8.6 s -8.6 -2.8 -8.6 -8.6 c 0 -5.8 4.8 -8.7 8.6 -8.7 m 0 3.1 c -2.4 0 -5.3 1.9 -5.3 5.6 c 0 3.7 2.8 5.6 5.3 5.6 s 5.3 -1.9 5.3 -5.6 c 0 -3.7 -2.8 -5.6 -5.3 -5.6 m 32.3 -3.1 c 3.2 0 6.4 2.1 6.4 7.5 v 9.5 h -3.5 v -9.5 c 0 -2.9 -1.4 -4.4 -3.9 -4.4 c -2.5 0 -4.1 2.1 -4.5 4.2 v 9.7 h -3.5 v -9.5 c 0 -2.9 -1.8 -4.4 -3.9 -4.4 c -2.7 0 -4.1 2.1 -4.5 4.2 v 9.7 h -3.5 V 69.6 h 3.5 v 3.6 c 0.1 -1.1 1.8 -3.9 5.3 -3.9 c 2.3 0 4.8 1.3 5.9 4 c 0.5 -1.4 2.5 -4 6.1 -4 m 18.7 0 c 3.8 0 8.3 2.9 8.3 8.6 c 0 5.8 -4.5 8.7 -8.3 8.7 c -3 0 -5 -1.7 -5.4 -3.1 v 8.9 h -3.5 V 69.6 h 3.5 v 2.6 c 0.4 -1.1 2.4 -2.9 5.4 -2.9 m -0.5 14.2 c 2.6 0 5.4 -1.9 5.4 -5.6 c 0 -3.7 -2.8 -5.6 -5.4 -5.6 s -5.1 1.8 -5.1 5.6 c 0 3.8 2.5 5.6 5.1 5.6 m 21.1 -14.2 c 0.4 0 0.7 0 1 0.1 v 3.3 c -0.3 -0.1 -0.6 -0.1 -0.9 -0.1 c -3.1 0 -5.7 2.2 -6.1 5.8 v 7.9 h -3.5 V 69.6 h 3.5 v 4.3 c 0.7 -2.5 2.9 -4.5 6 -4.5 m 11.7 0 c 3.8 0 8.6 2.9 8.6 8.7 c 0 5.8 -4.8 8.6 -8.6 8.6 s -8.6 -2.8 -8.6 -8.6 c 0 -5.8 4.8 -8.7 8.6 -8.7 m 0 3.1 c -2.4 0 -5.3 1.9 -5.3 5.6 c 0 3.7 2.8 5.6 5.3 5.6 s 5.3 -1.9 5.3 -5.6 c 0 -3.7 -2.8 -5.6 -5.3 -5.6" />
    <path fill="#4e4e4e"
      d="M 45.1 107.2 c -0.5 0 -0.9 -0.4 -0.9 -0.9 s 0.4 -0.9 0.9 -0.9 s 0.9 0.4 0.9 0.9 s -0.4 0.9 -0.9 0.9 M 57.9 97 c 1.6 0 2.8 1.1 3.2 2.1 l -1.2 0.7 c -0.5 -0.8 -1.1 -1.4 -2.1 -1.4 s -1.6 0.5 -1.6 1.3 c 0 0.7 0.4 1.1 1.4 1.5 l 0.7 0.3 c 2 0.7 3 1.6 3 3.1 c 0 1.8 -1.8 2.9 -3.4 2.9 c -1.7 0 -3.1 -1 -3.6 -2.5 l 1.2 -0.6 c 0.4 0.9 1.1 1.7 2.3 1.7 c 1 0 1.8 -0.5 1.8 -1.4 c 0 -1 -0.6 -1.3 -1.8 -1.8 l -0.7 -0.3 c -1.5 -0.6 -2.5 -1.3 -2.5 -2.9 c 0 -1.5 1.4 -2.6 3.1 -2.6 m 18.4 0.2 h 1.6 v 10 h -1.6 v -4.2 H 71.6 v 4.2 h -1.6 v -10 h 1.6 v 4.3 h 4.6 z m 15.5 -0.1 c 2.7 0 5.1 2.1 5.1 5.1 s -2.5 5.1 -5.1 5.1 s -5.1 -2.1 -5.1 -5.1 s 2.5 -5.1 5.1 -5.1 m 0 8.8 c 1.8 0 3.5 -1.5 3.5 -3.6 S 93.6 98.5 91.8 98.5 s -3.5 1.5 -3.5 3.6 s 1.7 3.6 3.5 3.6 m 17.3 -8.6 c 2.2 0 3.6 1.4 3.6 3.3 s -1.4 3.2 -3.6 3.2 h -1.8 v 3.5 h -1.6 v -10 z m -0.1 5.1 c 1.3 0 2.1 -0.6 2.1 -1.8 s -0.8 -1.8 -2.1 -1.8 h -1.7 v 3.7 z" />
  </svg>
</svg>