<svg width="244" height="320" viewBox="10 -50 320 480" fill="#111">
  <path xmlns="http://www.w3.org/2000/svg" d="m36.39 249.158 23.88 11.022-16.017 20.021a4.8 4.8 0 0 0 .354 6.393l9.6 9.6a4.8 4.8 0 0 0 6.421.331l28.398-23.073 7.256 3.349a4.76 4.76 0 0 0 1.125 4.993l9.6 9.6a4.8 4.8 0 0 0 5.344.992l38.821-17.254a14.47 14.47 0 0 0 8.184-9.92l13.125-56.879 27.781-41.672 23.368-15.578a23.96 23.96 0 0 0 8.62-10.222l4.666-10.501 27.48 63.545 8.81-3.81-30.989-71.663 6.97-15.683a4.8 4.8 0 0 0-2.239-6.242l-9.6-4.8a4.8 4.8 0 0 0-5.541.899l-.529.529-34.871-80.64a4.8 4.8 0 0 0-4.361-2.895H192a4.8 4.8 0 0 0-4.37 2.814l-24 52.8a4.8 4.8 0 0 0 6.055 6.48l36.02-13.507 18.27 42.25L201.412 123a14.5 14.5 0 0 1-5.63 3.479l-3.78 1.26v-23.973a12.567 12.567 0 0 0-18.188-11.24l-17.56 8.78a4.8 4.8 0 0 0-2.653 4.293v24c0 .245.01.488.019.73l-20.422 3.404a24.1 24.1 0 0 0-10.004 4.144l-26.64 19.028a14.46 14.46 0 0 0-5.885 9.682l-3.864 27.044-16.807 8.403-10.385-4.793a4.8 4.8 0 0 0-6.398 2.409l-19.2 43.2a4.8 4.8 0 0 0 2.375 6.307zM177.166 58.637l14.726-32.397 10 23.125zM57.934 286.345l-3.501-3.501 14.816-18.52 10.068 4.647zm62.802-101.747-14.752 18.44-.196-.98 7.542-18.856a4.82 4.82 0 0 1 2.673-2.673l8.459-3.384zm-10.988 46.356-14.112 8.467-28.932-12.399-2.876-17.262zm6.033 20.76 13.82-11.23v11.446l-20.389 14.564zm34.22 11.338a4.82 4.82 0 0 1-2.727 3.308l-35.81 15.915-3.262-3.262 26.98-19.272a9.62 9.62 0 0 0 4.02-7.811V230.4a4.8 4.8 0 0 0-7.828-3.725l-6.988 5.677.001-.003a4.8 4.8 0 0 0-2.374-6.307l-12.59-5.811-.98-4.9 17.793-22.24 36.198 16.087zm22.8-123.852a9.61 9.61 0 0 1-9.6-9.6V120h19.2v9.6a9.61 9.61 0 0 1-9.6 9.6m-9.6-30.633 14.907-7.454a2.967 2.967 0 0 1 4.293 2.654v6.633h-19.2zm-63.029 59.378a4.82 4.82 0 0 1 1.962-3.227l26.64-19.028a14.5 14.5 0 0 1 6.002-2.486l21.64-3.607a19.3 19.3 0 0 0 9.3 7.842l-3.042 6.081 8.587 4.293 4.633-9.266a19.25 19.25 0 0 0 13.855-9.937l9.07-3.023a24.1 24.1 0 0 0 9.382-5.798l27.948-27.949 2.403 1.202-15.075 33.92a14.37 14.37 0 0 1-5.172 6.133l-24.166 16.111a4.8 4.8 0 0 0-1.332 1.331l-26.555 39.833-34.911-15.516 7.353-14.707a4.8 4.8 0 0 0-6.075-6.604l-20.181 8.072a14.46 14.46 0 0 0-8.022 8.022l-6.134 15.337-1.84-.92zm-8.97 34.222 5.353 2.676 2.082 10.41-17.476-8.066zm-35.708 15.991 2.172 13.031a4.8 4.8 0 0 0 2.844 3.623l33.6 14.4a4.8 4.8 0 0 0 4.36-.296l10.976-6.585-11.054 24.87-53.683-24.776z"/>
  <path xmlns="http://www.w3.org/2000/svg" d="m149.3 180.3 10.3-20.6 8.6 4.3-10.3 20.6z"/>
  <g font-family="Arial">
    <text x="4" y="400" transform="matrix(.9 0 0 1.2 9 -80)" font-size="120" font-weight="bold">M</text>
    <g font-size="48" font-weight="1000">
      <text x="112" y="360" transform="matrix(1.3 0 0 1.2 -32 -80)">EET</text>
      <text x="242" y="360" transform="matrix(1.3 0 0 1.2 -32 -80)">A</text>
      <text x="112" y="400" transform="matrix(1.3 0 0 1.2 -32 -80)">ENTOR</text>
    </g>
  </g>
  <path d="M36.72 418.15h-3.44q-.19 0-.32-.13c-.13-.13-.13-.19-.13-.31v-7.01q0-.18.13-.31c.13-.13.193-.13.32-.13h3.44q.19 0 .32.13c.13.13.13.19.13.31q0 .19-.13.315c-.13.125-.193.125-.32.125h-3v2.55h2.53a.434.434 0 0 1 .44.44q0 .18-.13.31c-.13.13-.19.13-.31.13h-2.53v2.69h3q.19 0 .32.13c.13.13.13.193.13.32q0 .18-.13.31c-.13.13-.193.13-.32.13m13.968 0a.42.42 0 0 1-.38-.21l-3.61-5.72v5.49a.434.434 0 0 1-.44.44q-.18 0-.31-.13c-.13-.13-.13-.19-.13-.31v-7.01q0-.18.13-.31c.13-.13.19-.13.31-.13q.25 0 .38.2l3.61 5.72v-5.48a.434.434 0 0 1 .44-.44q.18 0 .31.13c.13.13.13.19.13.31v7.01q0 .18-.13.31c-.13.13-.19.13-.31.13m14.928 0q-.18 0-.31-.13c-.13-.13-.13-.19-.13-.31v-3.39h-3.93v3.39q0 .18-.13.31c-.13.13-.19.13-.31.13q-.19 0-.32-.13c-.13-.13-.13-.19-.13-.31v-7.01q0-.18.13-.31c.13-.13.193-.13.32-.13q.18 0 .31.13c.13.13.13.19.13.31v2.73h3.93v-2.73q0-.18.13-.31c.13-.13.19-.13.31-.13q.19 0 .32.13c.13.13.13.19.13.31v7.01q0 .18-.13.31c-.13.13-.193.13-.32.13m15.658-.04a.4.4 0 0 1-.17.04q-.13 0-.245-.07c-.115-.07-.132-.113-.165-.2l-.79-1.86h-3.63l-.79 1.86q-.07.17-.24.24c-.17.07-.227.043-.34-.01q-.17-.07-.24-.24c-.07-.17-.043-.227.01-.34l.9-2.13 2.11-4.94q.05-.13.16-.2c.11-.07.157-.07.25-.07q.13 0 .24.07a.32.32 0 0 1 .16.2l3.02 7.07q.07.17 0 .34c-.07.17-.127.193-.24.24m-3.18-6.34-1.44 3.36h2.87zm16.888 6.38a.42.42 0 0 1-.38-.21l-3.61-5.72v5.49a.434.434 0 0 1-.44.44q-.18 0-.31-.13c-.13-.13-.13-.19-.13-.31v-7.01q0-.18.13-.31c.13-.13.19-.13.31-.13q.25 0 .38.2l3.61 5.72v-5.48a.434.434 0 0 1 .44-.44q.18 0 .31.13c.13.13.13.19.13.31v7.01q0 .18-.13.31c-.13.13-.19.13-.31.13m13.438 0q-.83 0-1.555-.315c-.725-.315-.905-.495-1.265-.855s-.645-.782-.855-1.265-.315-1.002-.315-1.555q0-.82.315-1.535a3.9 3.9 0 0 1 2.12-2.065q.725-.3 1.555-.3a3.9 3.9 0 0 1 2.81 1.16q.14.14.14.32c0 .18-.047.223-.14.31q-.13.13-.31.13c-.18 0-.223-.043-.31-.13q-.45-.45-1.01-.68c-.56-.23-.767-.23-1.18-.23a3.14 3.14 0 0 0-2.2.875 2.95 2.95 0 0 0-.9 2.145q0 .64.245 1.205c.245.565.385.705.665.985s.608.502.985.665.778.245 1.205.245a3.08 3.08 0 0 0 2.19-.9.41.41 0 0 1 .62 0 .41.41 0 0 1 0 .62 3.9 3.9 0 0 1-2.81 1.17m15.848 0h-3.44q-.19 0-.32-.13c-.13-.13-.13-.19-.13-.31v-7.01q0-.18.13-.31c.13-.13.193-.13.32-.13h3.44q.19 0 .32.13c.13.13.13.19.13.31q0 .19-.13.315c-.13.125-.193.125-.32.125h-3v2.55h2.53a.434.434 0 0 1 .44.44q0 .18-.13.31c-.13.13-.19.13-.31.13h-2.53v2.69h3q.19 0 .32.13c.13.13.13.193.13.32q0 .18-.13.31c-.13.13-.193.13-.32.13m22.386-3.47h-1.32v3.03q0 .18-.13.31c-.13.13-.19.13-.31.13q-.19 0-.32-.13c-.13-.13-.13-.19-.13-.31v-7.01q0-.18.13-.31c.13-.13.193-.13.32-.13h1.76q.46 0 .865.175c.405.175.505.275.705.475s.358.433.475.7.175.553.175.86-.058.593-.175.86-.275.5-.475.7-.435.358-.705.475-.558.175-.865.175m0-3.54h-1.32v2.65h1.32a1.35 1.35 0 0 0 1.225-.81 1.3 1.3 0 0 0 0-1.025 1.4 1.4 0 0 0-.285-.425 1.34 1.34 0 0 0-.94-.39m14.518 7.01q-.82 0-1.54-.31c-.72-.31-.898-.488-1.255-.845s-.638-.775-.845-1.255-.31-.993-.31-1.54q0-.81.31-1.53c.31-.72.488-.898.845-1.255s.775-.638 1.255-.845.993-.31 1.54-.31q.81 0 1.53.31c.72.31.898.488 1.255.845s.638.775.845 1.255.31.99.31 1.53q0 .82-.31 1.54c-.31.72-.488.898-.845 1.255s-.775.638-1.255.845-.99.31-1.53.31m0-7.01q-.63 0-1.19.24c-.56.24-.7.378-.98.655s-.5.602-.66.975-.24.77-.24 1.19.08.817.24 1.19.38.7.66.98.607.5.98.66.77.24 1.19.24.817-.08 1.19-.24.698-.38.975-.66.495-.607.655-.98.24-.77.24-1.19-.08-.817-.24-1.19-.378-.698-.655-.975-.602-.495-.975-.655-.77-.24-1.19-.24m14.948 7.01q-.46 0-.86-.175c-.4-.175-.5-.275-.7-.475s-.358-.433-.475-.7-.175-.553-.175-.86q0-.19.13-.32c.13-.13.193-.13.32-.13q.18 0 .31.13c.13.13.13.193.13.32q0 .27.105.51c.105.24.165.3.285.42s.26.215.42.285.33.105.51.105.352-.035.515-.105a1.35 1.35 0 0 0 .71-.705q.105-.24.105-.51 0-.33-.13-.545c-.13-.215-.207-.268-.36-.375a1.5 1.5 0 0 0-.25-.145l-.29-.135a15 15 0 0 0-.64-.24q-.33-.12-.665-.27c-.335-.15-.423-.225-.6-.375s-.322-.337-.435-.56-.17-.498-.17-.825q0-.46.175-.86c.175-.4.275-.5.475-.7s.433-.358.7-.475.553-.175.86-.175.595.058.865.175.505.275.705.475.358.433.475.7.175.553.175.86q0 .18-.13.31c-.13.13-.193.13-.32.13q-.18 0-.31-.13c-.13-.13-.13-.19-.13-.31a1.35 1.35 0 0 0-.39-.94 1.34 1.34 0 0 0-.94-.39q-.27 0-.51.105c-.24.105-.3.165-.42.285a1.34 1.34 0 0 0-.39.94q0 .3.125.5c.125.2.202.25.355.35q.24.15.54.27l.32.12.33.12q.33.12.665.275c.335.155.423.233.6.39s.322.352.435.585.17.52.17.86q0 .46-.175.86c-.175.4-.275.5-.475.7s-.435.358-.705.475-.558.175-.865.175m13.218 0q-.46 0-.86-.175c-.4-.175-.5-.275-.7-.475s-.358-.433-.475-.7-.175-.553-.175-.86q0-.19.13-.32c.13-.13.193-.13.32-.13q.18 0 .31.13c.13.13.13.193.13.32q0 .27.105.51c.105.24.165.3.285.42s.26.215.42.285.33.105.51.105.352-.035.515-.105a1.35 1.35 0 0 0 .71-.705q.105-.24.105-.51 0-.33-.13-.545c-.13-.215-.207-.268-.36-.375a1.5 1.5 0 0 0-.25-.145l-.29-.135a15 15 0 0 0-.64-.24q-.33-.12-.665-.27c-.335-.15-.423-.225-.6-.375s-.322-.337-.435-.56-.17-.498-.17-.825q0-.46.175-.86c.175-.4.275-.5.475-.7s.433-.358.7-.475.553-.175.86-.175.595.058.865.175.505.275.705.475.358.433.475.7.175.553.175.86q0 .18-.13.31c-.13.13-.193.13-.32.13q-.18 0-.31-.13c-.13-.13-.13-.19-.13-.31a1.35 1.35 0 0 0-.39-.94 1.34 1.34 0 0 0-.94-.39q-.27 0-.51.105c-.24.105-.3.165-.42.285a1.34 1.34 0 0 0-.39.94q0 .3.125.5c.125.2.202.25.355.35q.24.15.54.27l.32.12.33.12q.33.12.665.275c.335.155.423.233.6.39s.322.352.435.585.17.52.17.86q0 .46-.175.86c-.175.4-.275.5-.475.7s-.435.358-.705.475-.558.175-.865.175m11.678 0q-.19 0-.32-.13c-.13-.13-.13-.19-.13-.31v-7.01q0-.18.13-.31c.13-.13.193-.13.32-.13q.18 0 .31.13c.13.13.13.19.13.31v7.01q0 .18-.13.31c-.13.13-.19.13-.31.13m12.248 0h-2.13q-.19 0-.32-.13c-.13-.13-.13-.19-.13-.31v-7.01q0-.18.13-.31c.13-.13.193-.13.32-.13h1.46a1.85 1.85 0 0 1 1.31.54 1.85 1.85 0 0 1 .54 1.31q0 .6-.36 1.1.39.13.71.355c.32.225.397.328.55.535s.273.435.36.685.13.515.13.795a2.57 2.57 0 0 1-1.57 2.37q-.47.2-1 .2m-.67-7.01h-1.02v1.93h1.12q.16 0 .315-.085c.155-.085.195-.13.275-.22s.145-.192.195-.305.075-.23.075-.35q0-.2-.075-.375a.8.8 0 0 0-.205-.31.93.93 0 0 0-.68-.285m.67 2.82h-1.69v3.3h1.69a1.65 1.65 0 0 0 1.19-.49 1.68 1.68 0 0 0 .49-1.19q0-.35-.135-.65c-.135-.3-.21-.372-.36-.515s-.328-.255-.535-.335-.423-.12-.65-.12m11.808 4.19q-.19 0-.32-.13c-.13-.13-.13-.19-.13-.31v-7.01q0-.18.13-.31c.13-.13.193-.13.32-.13q.18 0 .31.13c.13.13.13.19.13.31v7.01q0 .18-.13.31c-.13.13-.19.13-.31.13m12.778 0h-2.67q-.18 0-.31-.13c-.13-.13-.13-.19-.13-.31v-7.01a.434.434 0 0 1 .44-.44.427.427 0 0 1 .44.44v6.57h2.23q.19 0 .32.13c.13.13.13.19.13.31s-.043.223-.13.31-.193.13-.32.13m9.248 0q-.19 0-.32-.13c-.13-.13-.13-.19-.13-.31v-7.01q0-.18.13-.31c.13-.13.193-.13.32-.13q.18 0 .31.13c.13.13.13.19.13.31v7.01q0 .18-.13.31c-.13.13-.19.13-.31.13m13.468-7.01h-1.62v6.57q0 .18-.13.31c-.13.13-.19.13-.31.13q-.19 0-.32-.13c-.13-.13-.13-.19-.13-.31v-6.57h-1.62a.434.434 0 0 1-.44-.44q0-.18.13-.31c.13-.13.19-.13.31-.13h4.13q.18 0 .31.13c.13.13.13.19.13.31a.434.434 0 0 1-.44.44m9.348 7.01q-.19 0-.32-.13c-.13-.13-.13-.19-.13-.31v-7.01q0-.18.13-.31c.13-.13.193-.13.32-.13q.18 0 .31.13c.13.13.13.19.13.31v7.01q0 .18-.13.31c-.13.13-.19.13-.31.13m13.558 0h-3.44q-.19 0-.32-.13c-.13-.13-.13-.19-.13-.31v-7.01q0-.18.13-.31c.13-.13.193-.13.32-.13h3.44q.19 0 .32.13c.13.13.13.19.13.31q0 .19-.13.315c-.13.125-.193.125-.32.125h-3v2.55h2.53a.434.434 0 0 1 .44.44q0 .18-.13.31c-.13.13-.19.13-.31.13h-2.53v2.69h3q.19 0 .32.13c.13.13.13.193.13.32q0 .18-.13.31c-.13.13-.193.13-.32.13m11.088 0q-.46 0-.86-.175c-.4-.175-.5-.275-.7-.475s-.358-.433-.475-.7-.175-.553-.175-.86q0-.19.13-.32c.13-.13.193-.13.32-.13q.18 0 .31.13c.13.13.13.193.13.32q0 .27.105.51c.105.24.165.3.285.42s.26.215.42.285.33.105.51.105.352-.035.515-.105a1.35 1.35 0 0 0 .71-.705q.105-.24.105-.51 0-.33-.13-.545c-.13-.215-.207-.268-.36-.375a1.5 1.5 0 0 0-.25-.145l-.29-.135a15 15 0 0 0-.64-.24q-.33-.12-.665-.27c-.335-.15-.423-.225-.6-.375s-.322-.337-.435-.56-.17-.498-.17-.825q0-.46.175-.86c.175-.4.275-.5.475-.7s.433-.358.7-.475.553-.175.86-.175.595.058.865.175.505.275.705.475.358.433.475.7.175.553.175.86q0 .18-.13.31c-.13.13-.193.13-.32.13q-.18 0-.31-.13c-.13-.13-.13-.19-.13-.31a1.35 1.35 0 0 0-.39-.94 1.34 1.34 0 0 0-.94-.39q-.27 0-.51.105c-.24.105-.3.165-.42.285a1.34 1.34 0 0 0-.39.94q0 .3.125.5c.125.2.202.25.355.35q.24.15.54.27l.32.12.33.12q.33.12.665.275c.335.155.423.233.6.39s.322.352.435.585.17.52.17.86q0 .46-.175.86c-.175.4-.275.5-.475.7s-.435.358-.705.475-.558.175-.865.175"/>
</svg>
