<svg xmlns="http://www.w3.org/2000/svg" viewBox="-16 0 128 128">
  <g stroke-width="0" fill="#40a8c4">
    <path d="m72,20h-2.69c-7.09,0-13.77,2.3-19.31,6.66-5.54-4.36-12.22-6.66-19.31-6.66h-2.69c-5.51,0-10,4.49-10,10v7c0,2.21,1.79,4,4,4s4-1.79,4-4v-7c0-1.1.9-2,2-2h2.69c5.28,0,10.25,1.71,14.37,4.95,1.4,1.1,3.16,1.71,4.95,1.71s3.54-.61,4.95-1.71c4.12-3.24,9.08-4.95,14.37-4.95h2.69c1.1,0,2,.9,2,2v35c0,1.1-.9,2-2,2h-2.69c-5.99,0-12.06,1.97-17.56,5.69-1.83,1.24-2.31,3.73-1.07,5.56.77,1.14,2.03,1.76,3.32,1.76.77,0,1.55-.22,2.24-.69,4.16-2.82,8.68-4.31,13.07-4.31h2.69c5.51,0,10-4.49,10-10V30c0-5.51-4.49-10-10-10Z"/>
    <path d="m26,80c1.48,0,2.93-.41,4.19-1.19l13-8c2.35-1.44,3.81-4.06,3.81-6.81s-1.46-5.37-3.81-6.81l-13-8c-2.42-1.49-5.6-1.56-8.1-.17-2.53,1.41-4.1,4.09-4.1,6.98v16c0,2.9,1.57,5.57,4.1,6.99,1.19.66,2.54,1.01,3.9,1.01Zm0-24h0s13,8,13,8l-13,8v-16s0,0,0,0Z"/>
  </g>
</svg>
