<svg width="244" height="365.5" viewBox="0 0 320 480" fill="#111" class="prefix__prefix__looka-1j8o68f">
  <path xmlns="http://www.w3.org/2000/svg"
    d="M36.39 249.158l23.88 11.022-16.017 20.021a4.8 4.8 0 00.354 6.393l9.6 9.6a4.8 4.8 0 006.421.331l28.398-23.073 7.256 3.349a4.757 4.757 0 001.125 4.993l9.6 9.6a4.8 4.8 0 005.344.992l38.821-17.254a14.472 14.472 0 008.184-9.92l13.125-56.879 27.781-41.672 23.368-15.578a23.964 23.964 0 008.62-10.222l4.666-10.501 27.48 63.545 8.81-3.81-30.989-71.663 6.97-15.683a4.8 4.8 0 00-2.239-6.242l-9.6-4.8a4.8 4.8 0 00-5.541.899l-.529.529-34.871-80.64a4.8 4.8 0 00-4.361-2.895H192a4.8 4.8 0 00-4.37 2.814l-24 52.8a4.8 4.8 0 006.055 6.48l36.02-13.507 18.27 42.25L201.412 123a14.466 14.466 0 01-5.63 3.479l-3.78 1.26v-23.973a12.567 12.567 0 00-18.188-11.24l-17.56 8.78a4.8 4.8 0 00-2.653 4.293v24c0 .245.01.488.019.73l-20.422 3.404a24.125 24.125 0 00-10.004 4.144l-26.64 19.028a14.464 14.464 0 00-5.885 9.682l-3.864 27.044-16.807 8.403-10.385-4.793a4.8 4.8 0 00-6.398 2.409l-19.2 43.2a4.8 4.8 0 002.375 6.307zM177.166 58.637l14.726-32.397 10 23.125zM57.934 286.345l-3.501-3.501 14.816-18.52 10.068 4.647zm62.802-101.747l-14.752 18.44-.196-.98 7.542-18.856a4.823 4.823 0 012.673-2.673l8.459-3.384zm-10.988 46.356l-14.112 8.467-28.932-12.399-2.876-17.262zm6.033 20.76l13.82-11.23v11.446l-20.389 14.564zm34.22 11.338a4.824 4.824 0 01-2.727 3.308l-35.81 15.915-3.262-3.262 26.98-19.272a9.62 9.62 0 004.02-7.811V230.4a4.8 4.8 0 00-7.828-3.725l-6.988 5.677.001-.003a4.8 4.8 0 00-2.374-6.307l-12.59-5.811-.98-4.9 17.793-22.24 36.198 16.087zm22.8-123.852a9.611 9.611 0 01-9.6-9.6V120h19.2v9.6a9.611 9.611 0 01-9.6 9.6zm-9.6-30.633l14.907-7.454a2.967 2.967 0 014.293 2.654v6.633h-19.2zm-63.029 59.378a4.822 4.822 0 011.962-3.227l26.64-19.028a14.483 14.483 0 016.002-2.486l21.64-3.607a19.31 19.31 0 009.3 7.842l-3.042 6.081 8.587 4.293 4.633-9.266a19.25 19.25 0 0013.855-9.937l9.07-3.023a24.12 24.12 0 009.382-5.798l27.948-27.949 2.403 1.202-15.075 33.92a14.374 14.374 0 01-5.172 6.133l-24.166 16.111a4.8 4.8 0 00-1.332 1.331l-26.555 39.833-34.911-15.516 7.353-14.707a4.8 4.8 0 00-6.075-6.604l-20.181 8.072a14.463 14.463 0 00-8.022 8.022l-6.134 15.337-1.84-.92zm-8.97 34.222l5.353 2.676 2.082 10.41-17.476-8.066zm-35.708 15.991l2.172 13.031a4.8 4.8 0 002.844 3.623l33.6 14.4a4.8 4.8 0 004.36-.296l10.976-6.585-11.054 24.87-53.683-24.776z" />
  <path xmlns="http://www.w3.org/2000/svg" d="M149.3 180.3l10.3-20.6 8.6 4.3-10.3 20.6z" />
  <g font-family="Arial"><text x="4" y="400" transform="matrix(.9 0 0 1.2 9 -80)" font-size="120"
      font-weight="bold">M</text>
    <g font-size="48" font-weight="1000"><text x="100" y="360" transform="matrix(1.3 0 0 1.2 -32 -80)">EET</text><text
        x="230" y="360" transform="matrix(1.3 0 0 1.2 -32 -80)">A</text><text x="100" y="400"
        transform="matrix(1.3 0 0 1.2 -32 -80)">ENTOR</text></g>
  </g>
  <path
    d="M36.72 426.15h-3.44c-.127 0-.233-.043-.32-.13s-.13-.19-.13-.31v-7.01c0-.12.043-.223.13-.31s.193-.13.32-.13h3.44c.127 0 .233.043.32.13s.13.19.13.31c0 .127-.043.232-.13.315s-.193.125-.32.125h-3v2.55h2.53a.434.434 0 01.44.44c0 .12-.043.223-.13.31s-.19.13-.31.13h-2.53v2.69h3c.127 0 .233.043.32.13s.13.193.13.32c0 .12-.043.223-.13.31s-.193.13-.32.13zm13.968 0a.42.42 0 01-.38-.21l-3.61-5.72v5.49a.434.434 0 01-.44.44c-.12 0-.223-.043-.31-.13s-.13-.19-.13-.31v-7.01c0-.12.043-.223.13-.31s.19-.13.31-.13c.167 0 .293.067.38.2l3.61 5.72v-5.48a.434.434 0 01.44-.44c.12 0 .223.043.31.13s.13.19.13.31v7.01c0 .12-.043.223-.13.31s-.19.13-.31.13zm14.928 0c-.12 0-.223-.043-.31-.13s-.13-.19-.13-.31v-3.39h-3.93v3.39c0 .12-.043.223-.13.31s-.19.13-.31.13c-.127 0-.233-.043-.32-.13s-.13-.19-.13-.31v-7.01c0-.12.043-.223.13-.31s.193-.13.32-.13c.12 0 .223.043.31.13s.13.19.13.31v2.73h3.93v-2.73c0-.12.043-.223.13-.31s.19-.13.31-.13c.127 0 .233.043.32.13s.13.19.13.31v7.01c0 .12-.043.223-.13.31s-.193.13-.32.13zm15.658-.04a.375.375 0 01-.17.04c-.087 0-.168-.023-.245-.07s-.132-.113-.165-.2l-.79-1.86h-3.63l-.79 1.86c-.047.113-.127.193-.24.24s-.227.043-.34-.01c-.113-.047-.193-.127-.24-.24s-.043-.227.01-.34l.9-2.13 2.11-4.94c.033-.087.087-.153.16-.2s.157-.07.25-.07c.087 0 .167.023.24.07s.127.113.16.2a11076.88 11076.88 0 003.02 7.07c.047.113.047.227 0 .34s-.127.193-.24.24zm-3.18-6.34l-1.44 3.36h2.87zm16.888 6.38a.42.42 0 01-.38-.21l-3.61-5.72v5.49a.434.434 0 01-.44.44c-.12 0-.223-.043-.31-.13s-.13-.19-.13-.31v-7.01c0-.12.043-.223.13-.31s.19-.13.31-.13c.167 0 .293.067.38.2l3.61 5.72v-5.48a.434.434 0 01.44-.44c.12 0 .223.043.31.13s.13.19.13.31v7.01c0 .12-.043.223-.13.31s-.19.13-.31.13zm13.438 0c-.553 0-1.072-.105-1.555-.315s-.905-.495-1.265-.855-.645-.782-.855-1.265-.315-1.002-.315-1.555c0-.547.105-1.058.315-1.535a3.903 3.903 0 012.12-2.065c.483-.2 1.002-.3 1.555-.3a3.91 3.91 0 012.81 1.16c.093.093.14.2.14.32s-.047.223-.14.31c-.087.087-.19.13-.31.13s-.223-.043-.31-.13c-.3-.3-.637-.527-1.01-.68s-.767-.23-1.18-.23a3.143 3.143 0 00-2.2.875 2.952 2.952 0 00-.9 2.145c0 .427.082.828.245 1.205s.385.705.665.985.608.502.985.665.778.245 1.205.245a3.076 3.076 0 002.19-.9.41.41 0 01.62 0 .41.41 0 010 .62 3.912 3.912 0 01-2.81 1.17zm15.848 0h-3.44c-.127 0-.233-.043-.32-.13s-.13-.19-.13-.31v-7.01c0-.12.043-.223.13-.31s.193-.13.32-.13h3.44c.127 0 .233.043.32.13s.13.19.13.31c0 .127-.043.232-.13.315s-.193.125-.32.125h-3v2.55h2.53a.434.434 0 01.44.44c0 .12-.043.223-.13.31s-.19.13-.31.13h-2.53v2.69h3c.127 0 .233.043.32.13s.13.193.13.32c0 .12-.043.223-.13.31s-.193.13-.32.13zm22.386-3.47h-1.32v3.03c0 .12-.043.223-.13.31s-.19.13-.31.13c-.127 0-.233-.043-.32-.13s-.13-.19-.13-.31v-7.01c0-.12.043-.223.13-.31s.193-.13.32-.13h1.76c.307 0 .595.058.865.175s.505.275.705.475.358.433.475.7.175.553.175.86-.058.593-.175.86-.275.5-.475.7-.435.358-.705.475-.558.175-.865.175zm0-3.54h-1.32v2.65h1.32a1.345 1.345 0 001.225-.81 1.294 1.294 0 000-1.025 1.345 1.345 0 00-.285-.425 1.341 1.341 0 00-.94-.39zm14.518 7.01c-.547 0-1.06-.103-1.54-.31s-.898-.488-1.255-.845-.638-.775-.845-1.255-.31-.993-.31-1.54c0-.54.103-1.05.31-1.53s.488-.898.845-1.255.775-.638 1.255-.845.993-.31 1.54-.31c.54 0 1.05.103 1.53.31s.898.488 1.255.845.638.775.845 1.255.31.99.31 1.53c0 .547-.103 1.06-.31 1.54s-.488.898-.845 1.255-.775.638-1.255.845-.99.31-1.53.31zm0-7.01c-.42 0-.817.08-1.19.24s-.7.378-.98.655-.5.602-.66.975-.24.77-.24 1.19.08.817.24 1.19.38.7.66.98.607.5.98.66.77.24 1.19.24.817-.08 1.19-.24.698-.38.975-.66.495-.607.655-.98.24-.77.24-1.19-.08-.817-.24-1.19-.378-.698-.655-.975-.602-.495-.975-.655-.77-.24-1.19-.24zm14.948 7.01c-.307 0-.593-.058-.86-.175s-.5-.275-.7-.475-.358-.433-.475-.7-.175-.553-.175-.86c0-.127.043-.233.13-.32s.193-.13.32-.13c.12 0 .223.043.31.13s.13.193.13.32c0 .18.035.35.105.51s.165.3.285.42.26.215.42.285.33.105.51.105.352-.035.515-.105a1.345 1.345 0 00.71-.705c.07-.16.105-.33.105-.51 0-.22-.043-.402-.13-.545s-.207-.268-.36-.375a1.492 1.492 0 00-.25-.145l-.29-.135a15.295 15.295 0 00-.64-.24c-.22-.08-.442-.17-.665-.27s-.423-.225-.6-.375-.322-.337-.435-.56-.17-.498-.17-.825c0-.307.058-.593.175-.86s.275-.5.475-.7.433-.358.7-.475.553-.175.86-.175.595.058.865.175.505.275.705.475.358.433.475.7.175.553.175.86c0 .12-.043.223-.13.31s-.193.13-.32.13c-.12 0-.223-.043-.31-.13s-.13-.19-.13-.31a1.345 1.345 0 00-.39-.94 1.341 1.341 0 00-.94-.39c-.18 0-.35.035-.51.105s-.3.165-.42.285a1.341 1.341 0 00-.39.94c0 .2.042.367.125.5s.202.25.355.35c.16.1.34.19.54.27l.32.12.33.12c.22.08.442.172.665.275s.423.233.6.39.322.352.435.585.17.52.17.86c0 .307-.058.593-.175.86s-.275.5-.475.7-.435.358-.705.475-.558.175-.865.175zm13.218 0c-.307 0-.593-.058-.86-.175s-.5-.275-.7-.475-.358-.433-.475-.7-.175-.553-.175-.86c0-.127.043-.233.13-.32s.193-.13.32-.13c.12 0 .223.043.31.13s.13.193.13.32c0 .18.035.35.105.51s.165.3.285.42.26.215.42.285.33.105.51.105.352-.035.515-.105a1.345 1.345 0 00.71-.705c.07-.16.105-.33.105-.51 0-.22-.043-.402-.13-.545s-.207-.268-.36-.375a1.492 1.492 0 00-.25-.145l-.29-.135a15.295 15.295 0 00-.64-.24c-.22-.08-.442-.17-.665-.27s-.423-.225-.6-.375-.322-.337-.435-.56-.17-.498-.17-.825c0-.307.058-.593.175-.86s.275-.5.475-.7.433-.358.7-.475.553-.175.86-.175.595.058.865.175.505.275.705.475.358.433.475.7.175.553.175.86c0 .12-.043.223-.13.31s-.193.13-.32.13c-.12 0-.223-.043-.31-.13s-.13-.19-.13-.31a1.345 1.345 0 00-.39-.94 1.341 1.341 0 00-.94-.39c-.18 0-.35.035-.51.105s-.3.165-.42.285a1.341 1.341 0 00-.39.94c0 .2.042.367.125.5s.202.25.355.35c.16.1.34.19.54.27l.32.12.33.12c.22.08.442.172.665.275s.423.233.6.39.322.352.435.585.17.52.17.86c0 .307-.058.593-.175.86s-.275.5-.475.7-.435.358-.705.475-.558.175-.865.175zm11.678 0c-.127 0-.233-.043-.32-.13s-.13-.19-.13-.31v-7.01c0-.12.043-.223.13-.31s.193-.13.32-.13c.12 0 .223.043.31.13s.13.19.13.31v7.01c0 .12-.043.223-.13.31s-.19.13-.31.13zm12.248 0h-2.13c-.127 0-.233-.043-.32-.13s-.13-.19-.13-.31v-7.01c0-.12.043-.223.13-.31s.193-.13.32-.13h1.46a1.854 1.854 0 011.31.54 1.853 1.853 0 01.54 1.31c0 .4-.12.767-.36 1.1.26.087.497.205.71.355s.397.328.55.535.273.435.36.685.13.515.13.795a2.569 2.569 0 01-1.57 2.37c-.313.133-.647.2-1 .2zm-.67-7.01h-1.02v1.93h1.12c.107 0 .212-.028.315-.085s.195-.13.275-.22.145-.192.195-.305.075-.23.075-.35c0-.133-.025-.258-.075-.375s-.118-.22-.205-.31a.928.928 0 00-.68-.285zm.67 2.82h-1.69v3.3h1.69a1.653 1.653 0 001.19-.49 1.68 1.68 0 00.49-1.19c0-.233-.045-.45-.135-.65s-.21-.372-.36-.515-.328-.255-.535-.335-.423-.12-.65-.12zm11.808 4.19c-.127 0-.233-.043-.32-.13s-.13-.19-.13-.31v-7.01c0-.12.043-.223.13-.31s.193-.13.32-.13c.12 0 .223.043.31.13s.13.19.13.31v7.01c0 .12-.043.223-.13.31s-.19.13-.31.13zm12.778 0h-2.67c-.12 0-.223-.043-.31-.13s-.13-.19-.13-.31v-7.01a.434.434 0 01.44-.44.427.427 0 01.44.44v6.57h2.23c.127 0 .233.043.32.13s.13.19.13.31-.043.223-.13.31-.193.13-.32.13zm9.248 0c-.127 0-.233-.043-.32-.13s-.13-.19-.13-.31v-7.01c0-.12.043-.223.13-.31s.193-.13.32-.13c.12 0 .223.043.31.13s.13.19.13.31v7.01c0 .12-.043.223-.13.31s-.19.13-.31.13zm13.468-7.01h-1.62v6.57c0 .12-.043.223-.13.31s-.19.13-.31.13c-.127 0-.233-.043-.32-.13s-.13-.19-.13-.31v-6.57h-1.62a.434.434 0 01-.44-.44c0-.12.043-.223.13-.31s.19-.13.31-.13h4.13c.12 0 .223.043.31.13s.13.19.13.31a.434.434 0 01-.44.44zm9.348 7.01c-.127 0-.233-.043-.32-.13s-.13-.19-.13-.31v-7.01c0-.12.043-.223.13-.31s.193-.13.32-.13c.12 0 .223.043.31.13s.13.19.13.31v7.01c0 .12-.043.223-.13.31s-.19.13-.31.13zm13.558 0h-3.44c-.127 0-.233-.043-.32-.13s-.13-.19-.13-.31v-7.01c0-.12.043-.223.13-.31s.193-.13.32-.13h3.44c.127 0 .233.043.32.13s.13.19.13.31c0 .127-.043.232-.13.315s-.193.125-.32.125h-3v2.55h2.53a.434.434 0 01.44.44c0 .12-.043.223-.13.31s-.19.13-.31.13h-2.53v2.69h3c.127 0 .233.043.32.13s.13.193.13.32c0 .12-.043.223-.13.31s-.193.13-.32.13zm11.088 0c-.307 0-.593-.058-.86-.175s-.5-.275-.7-.475-.358-.433-.475-.7-.175-.553-.175-.86c0-.127.043-.233.13-.32s.193-.13.32-.13c.12 0 .223.043.31.13s.13.193.13.32c0 .18.035.35.105.51s.165.3.285.42.26.215.42.285.33.105.51.105.352-.035.515-.105a1.345 1.345 0 00.71-.705c.07-.16.105-.33.105-.51 0-.22-.043-.402-.13-.545s-.207-.268-.36-.375a1.492 1.492 0 00-.25-.145l-.29-.135a15.295 15.295 0 00-.64-.24c-.22-.08-.442-.17-.665-.27s-.423-.225-.6-.375-.322-.337-.435-.56-.17-.498-.17-.825c0-.307.058-.593.175-.86s.275-.5.475-.7.433-.358.7-.475.553-.175.86-.175.595.058.865.175.505.275.705.475.358.433.475.7.175.553.175.86c0 .12-.043.223-.13.31s-.193.13-.32.13c-.12 0-.223-.043-.31-.13s-.13-.19-.13-.31a1.345 1.345 0 00-.39-.94 1.341 1.341 0 00-.94-.39c-.18 0-.35.035-.51.105s-.3.165-.42.285a1.341 1.341 0 00-.39.94c0 .2.042.367.125.5s.202.25.355.35c.16.1.34.19.54.27l.32.12.33.12c.22.08.442.172.665.275s.423.233.6.39.322.352.435.585.17.52.17.86c0 .307-.058.593-.175.86s-.275.5-.475.7-.435.358-.705.475-.558.175-.865.175z"
    fill="#fff" />
</svg>