<svg fill="#000000" width="514" height="76" viewBox="0 0 369.54545454545456 54.823766674645114" class="looka-1j8o68f">
  <g transform="matrix(1.1214382847558673,0,0,1.1214382847558673,-8.34350036800942,-26.693764655942772)" fill="#1989ac">
    <path d="M91.56,70.65H87.91L78,57.18a1,1,0,0,0-1.66.07l-1.79,3L58.78,38.88V33.37h4.79a1,1,0,0,0,1-1v-4a1,1,0,0,0-1-1H57.78a1,1,0,0,0-1,1V38.88L46.52,52.65,42,46.15A1,1,0,0,0,42,46.08a1,1,0,0,0-.22-0.2l-0.14-.07a1,1,0,0,0-.26-0.07l-0.1,0H41.08a1,1,0,0,0-.32.11l-0.08,0a1,1,0,0,0-.24.21L29.17,60.41l-2.65-3.27a1.1,1.1,0,0,0-.79-0.37,1,1,0,0,0-.78.4L14.78,70.65H8.44a1,1,0,0,0,0,2h72a1,1,0,0,0,0-2H77L63.26,52.81A1,1,0,0,0,61.67,54L74.51,70.65H17.29L25.77,59.4l4.82,5.94a1,1,0,0,0,1.55-1.26L30.46,62,40.54,49.2,41.85,59a1,1,0,0,0,.2.48l4.48,5.8a1,1,0,1,0,1.58-1.22L43.8,58.52l-1-7.8L47,56.91a1,1,0,0,0,1.17.37L53,55.53l2.77,2.93a1,1,0,0,0,1.46-1.37L54,53.68a1,1,0,0,0-1.07-.25l-4.7,1.71-0.52-.75,5.23-7,2.91,0.3,1.43,2.74a1,1,0,0,0,1.36.42l4.62-2.49L73.84,62.6h0l2.57,3.47A1,1,0,1,0,78,64.89L75.85,62l1.44-2.39,8.13,11.08h-1a1,1,0,0,0,0,2h7.1A1,1,0,0,0,91.56,70.65ZM58.78,29.35h3.79v2H58.78v-2ZM58.6,48.57l-1.21-2.32a1,1,0,0,0-.78-0.53l-2.26-.23,3.43-4.6,4.3,5.81Z" />
  </g>
  <g transform="matrix(0.7916644200320649,0,0,0.7916644200320649,113.92333637743154,-9.088307179572894)" fill="#111111">
    <path d="M1.36 40 l0 -1.08 c1.32 -1.4 2.04 -3.28 2.04 -5.24 l0 -15.32 c0 -1.96 -0.72 -3.84 -2.04 -5.24 l0 -1.12 l12.2 0 c4.52 0 8.44 3.48 8.68 7.92 c0.4 4.96 -3.48 9.16 -8.4 9.16 l-6.12 0 l0 4.6 c0 1.96 0.8 3.84 2.12 5.24 l0 1.08 l-8.48 0 z M7.72 27.72 l4.72 0 c4 0 7.28 -3.2 7.28 -7.2 s-3.28 -7.24 -7.28 -7.24 l-4.72 0 l0 14.44 z M28.131999999999998 40 l0 -1.08 c1.24 -1.48 2.04 -3.36 2.04 -5.24 l0 -15.32 c0 -1.92 -0.8 -3.84 -2.04 -5.24 l0 -1.12 l8.48 0 l0 1.12 c-1.36 1.4 -2.12 3.32 -2.12 5.24 l0 15.32 c0 1.88 0.76 3.76 2.12 5.24 l0 1.08 l-8.48 0 z M43.104 40 l0 -1.08 l0.64 -0.68 c0.72 -0.76 1.12 -1.64 1.12 -2.72 l0 -18.64 c0 -0.96 -0.32 -1.92 -0.92 -2.56 l-1.12 -1.16 l0 -1.16 l6.36 0 l16.28 25.32 l0 -21.4 c0 -1.04 -0.4 -2 -1.24 -2.76 l0 -1.16 l4.8 0 l0 1.16 l-0.64 0.64 c-0.76 0.68 -1.2 1.68 -1.2 2.68 l0 23.52 l-4.32 0 l-15.8 -24.6 l-0.44 0 l0 20.72 c0 1.04 0.48 2.04 1.24 2.8 l0 1.08 l-4.76 0 z M75.236 40 l0 -1.08 c1.32 -1.4 2.04 -3.28 2.04 -5.24 l0 -15.32 c0 -1.96 -0.72 -3.84 -2.04 -5.24 l0 -1.12 l12.2 0 c4.52 0 8.44 3.48 8.68 7.92 c0.4 4.96 -3.48 9.16 -8.4 9.16 l-6.12 0 l0 4.6 c0 1.96 0.8 3.84 2.12 5.24 l0 1.08 l-8.48 0 z M81.596 27.72 l4.72 0 c4 0 7.28 -3.2 7.28 -7.2 s-3.28 -7.24 -7.28 -7.24 l-4.72 0 l0 14.44 z M101.888 26 c0 -8.2 6.8 -14.52 15.16 -14.52 c8.44 0 15.2 6.32 15.2 14.52 c0 8.24 -6.76 14.52 -15.2 14.52 c-8.36 0 -15.16 -6.28 -15.16 -14.52 z M107.968 28.2 c2.2 7.28 7.72 11.8 13.04 10.56 c5.4 -1.24 7.96 -7.76 5.8 -15 c-2.16 -7.28 -8.32 -11.6 -13.68 -10.36 s-7.36 7.6 -5.16 14.8 z M138.46 40 l0 -1.08 c1.24 -1.48 2.04 -3.36 2.04 -5.24 l0 -15.32 c0 -1.92 -0.8 -3.84 -2.04 -5.24 l0 -1.12 l8.48 0 l0 1.12 c-1.36 1.4 -2.12 3.32 -2.12 5.24 l0 15.32 c0 1.88 0.76 3.76 2.12 5.24 l0 1.08 l-8.48 0 z M153.47199999999998 40 l0 -1.24 l0.72 -0.56 c0.72 -0.56 1.04 -1.68 1.04 -2.72 l0 -18.64 c0 -0.88 -0.36 -1.84 -0.96 -2.48 l-1.12 -1.16 l0 -1.2 l6.48 0 l16.16 25.24 l0 -14.76 c0 -1.04 -0.36 -2.04 -1.16 -2.68 l0 -1.2 l4.72 0 l0 1.2 l-0.64 0.64 c-0.72 0.64 -1.16 1.6 -1.16 2.64 l0 16.92 l-4.32 0 l-15.8 -24.56 l-0.4 0 l0 20.6 c0 1.12 0.48 2.08 1.2 2.72 l0 1.24 l-4.76 0 z M183.552 40 l0 -1.16 c1.36 -1.4 2.12 -3.32 2.12 -5.24 l0 -19.68 l-3.68 0 c-1.96 0 -3.72 0.76 -5.04 2.2 l-2.2 0 l0 -4.12 l26.12 0 l0 4.12 l-2.12 0 c-1.32 -1.44 -3.16 -2.2 -5.12 -2.2 l-3.6 0 l0 19.68 c0 1.92 0.68 3.84 2 5.24 l0 1.16 l-8.48 0 z M222.61599999999999 37.52 l0 -3.68 l2.2 0 l1.88 2.12 c1.68 1.88 3.88 2.24 6.52 2.28 c3.16 0 6.12 -1.04 6.12 -3.68 c0 -3.24 -5.6 -6.4 -8.8 -8.2 c-2.76 -1.56 -7.4 -3.76 -7.4 -7.08 c0 -6.16 7.76 -7.28 9.92 -7.28 c2.68 0 5.4 0.6 8.28 1.8 l0.08 3.64 l-2.28 0 l-1.32 -1.6 c-1.28 -1.52 -3.24 -2.4 -5.16 -2.4 c-3.4 0 -5.28 2.4 -5.28 3.76 c0 2.84 5.76 4.88 11.36 8.56 c3.16 2.08 4.6 4.56 4.6 6.88 c0 3.92 -3.96 7.48 -10 7.48 c-7.32 0 -10.72 -2.6 -10.72 -2.6 z M249.38799999999998 40 l0 -1.08 l1.52 -1.68 c0.36 -0.4 0.6 -0.84 0.6 -1.36 l0 -19.72 c0 -0.56 -0.24 -1.04 -0.6 -1.4 l-1.52 -1.64 l0 -1.12 l8.52 0 l0 1.12 l-1.52 1.64 c-0.36 0.36 -0.56 0.84 -0.56 1.4 l0 8.72 l12.8 -10.08 c0.64 -0.48 0.84 -1.28 0.68 -2.08 l0 -0.72 l6.08 0 l0 0.68 l-1.4 0.56 c-1.12 0.48 -2.28 1.08 -3.28 1.88 l-11.12 8.88 l3.52 0 l9.28 11.68 c0.6 0.76 1.24 1.4 2.08 2 l1.68 1.24 l0 1.08 l-8.48 0 l0 -1.08 c1 -0.68 1.28 -2.08 0.52 -3 l-9.12 -11.48 l-3.24 2.56 l0 8.88 c0 0.52 0.2 0.96 0.56 1.4 l1.52 1.64 l0 1.08 l-8.52 0 z M281.4 40 l0 -1.08 c1.24 -1.48 2.04 -3.36 2.04 -5.24 l0 -15.32 c0 -1.92 -0.8 -3.84 -2.04 -5.24 l0 -1.12 l8.48 0 l0 1.12 c-1.36 1.4 -2.12 3.32 -2.12 5.24 l0 15.32 c0 1.88 0.76 3.76 2.12 5.24 l0 1.08 l-8.48 0 z M296.132 40 l0 -1.12 c1.24 -1.4 2.08 -3.28 2.08 -5.24 l0 -15.28 c0 -1.96 -0.76 -3.84 -2.08 -5.24 l0 -1.12 l8.48 0 l0 1.12 c-1.4 1.4 -2.08 3.28 -2.08 5.24 l0 19.8 l6.36 0 c2.04 0 4.12 -0.64 5.84 -1.88 l1.2 0 l0 3.72 l-19.8 0 z M306.652 33.4 l0 -1.16 c1.32 -1.52 2.08 -3.28 2.08 -5.28 l0 -8.6 c0 -1.96 -0.76 -3.84 -2.08 -5.24 l0 -1.12 l8.52 0 l0 1.12 c-1.32 1.4 -2.04 3.28 -2.04 5.24 l0 13.08 l2.68 0 c2.12 0 4.12 -0.6 5.88 -1.88 l1.2 0 l0 3.84 l-16.24 0 z"/>
  </g>
  <g transform="matrix(0.8813138545650091,0,0,0.8813138545650091,116.58989781168383,29.888379475425673)" fill="#111111">
    <path d="M1.6 20 l0 -11.4 c0 -1.6 1.2 -2.8 3 -2.8 l2.9 0 l0 0.8 l-0.4 0.4 l-2.5 0 c-0.9 0 -1.6 0.7 -1.6 1.6 l0 2.4 l3.3 0 l0 1.2 l-3.3 0 l0 7.8 l-1.4 0 z M17.34 9.8 l0 10.2 l-1.4 0 l0 -10.2 l1.4 0 z M17.34 6 l0 2.4 l-1.4 0 l0 -2.4 l1.4 0 z M26.58 11 l0 -1.2 l1.6 0 l0.6 -3 l0.8 0 l0 3 l2.9 0 l0 1.2 l-2.9 0 l0 6.2 c0 0.9 0.7 1.6 1.6 1.6 l1.9 0 l0 1.2 l-1.9 0 c-1.8 0 -3 -1.2 -3 -2.8 l0 -6.2 l-1.6 0 z M43.120000000000005 12.6 c0 0.8 0.4 1.22 1.3 1.4 l2.9 0.6 c1.4 0.3 2.2 1.1 2.2 2.6 c0 1.6 -1.2 2.8 -3 2.8 l-4.9 0 l0 -1.2 l4.9 0 c0.9 0 1.6 -0.7 1.6 -1.6 c0 -0.8 -0.4 -1.22 -1.3 -1.4 l-2.9 -0.6 c-1.4 -0.28 -2.2 -1.1 -2.2 -2.6 c0 -1.62 1.2 -2.8 3 -2.8 l4.5 0 l0 0.8 l-0.4 0.4 l-4.1 0 c-0.9 0 -1.6 0.7 -1.6 1.6 z M78.5 10.4 l-3.6 9.6 c-0.9 2.4 -1.9 3.4 -3.7 3.4 l-0.5 0 l0 -1.2 l0.5 0 c1 0 1.7 -0.7 2.2 -2.2 l-3.8 -9.6 l0 -0.6 l1.4 0 l3.1 8.6 l0.1 0 l2.9 -8.6 l1.4 0 l0 0.6 z M88.94 12.4 l0 5 c0 0.9 0.7 1.6 1.6 1.6 l2.5 0 c0.9 0 1.6 -0.7 1.6 -1.6 l0 -5 c0 -0.9 -0.7 -1.6 -1.6 -1.6 l-2.5 0 c-0.9 0 -1.6 0.7 -1.6 1.6 z M87.54 17.4 l0 -5 c0 -1.6 1.2 -2.8 3 -2.8 l2.5 0 c1.8 0 3 1.2 3 2.8 l0 5 c0 1.6 -1.2 2.8 -3 2.8 l-2.5 0 c-1.9 0 -3 -1.2 -3 -2.8 z M106.28 9.8 l1.4 0 l0 7.6 c0 0.9 0.7 1.6 1.6 1.6 l1.8 0 c1.5 0 2.3 -1.8 2.3 -1.8 l0 -7.4 l1.4 0 l0 10.2 l-0.9 0 l-0.2 -1.4 l-0.1 0 s-0.8 1.6 -2.5 1.6 l-1.8 0 c-1.8 0 -3 -1.2 -3 -2.8 l0 -7.6 z M130.82 9.6 l0 1.3 l-1.9 0 c-1.5 0 -2.3 1.7 -2.3 1.7 l0 7.4 l-1.4 0 l0 -10.2 l0.9 0 l0.2 1.4 l0.1 0 s0.8 -1.6 2.5 -1.6 l1.9 0 z M159.99999999999997 20 l-1.4 0 l0 -7.6 c0 -0.9 -0.7 -1.6 -1.6 -1.6 l-1.8 0 c-1.5 0 -2.3 1.8 -2.3 1.8 l0 7.4 l-1.4 0 l0 -10.2 l0.9 0 l0.2 1.4 l0.1 0 s0.8 -1.6 2.5 -1.6 l1.8 0 c1.8 0 3 1.2 3 2.8 l0 7.6 z M178.03999999999996 20 l-4.8 0 c-1.9 0 -3 -1.2 -3 -2.8 l0 -4.8 c0 -1.6 1.2 -2.8 3 -2.8 l2.2 0 c1.8 0 3 1.2 3 2.8 l0 3.1 l-6.8 0 l0 1.7 c0 0.9 0.7 1.6 1.6 1.6 l4.8 0 l0 1.2 z M171.64 12.4 l0 1.9 l5.4 0 l0 -1.9 c0 -0.9 -0.7 -1.6 -1.6 -1.6 l-2.2 0 c-0.9 0 -1.6 0.7 -1.6 1.6 z M196.27999999999997 20 l-4.8 0 c-1.9 0 -3 -1.2 -3 -2.8 l0 -4.8 c0 -1.6 1.2 -2.8 3 -2.8 l2.2 0 c1.8 0 3 1.2 3 2.8 l0 3.1 l-6.8 0 l0 1.7 c0 0.9 0.7 1.6 1.6 1.6 l4.8 0 l0 1.2 z M189.88 12.4 l0 1.9 l5.4 0 l0 -1.9 c0 -0.9 -0.7 -1.6 -1.6 -1.6 l-2.2 0 c-0.9 0 -1.6 0.7 -1.6 1.6 z M211.51999999999998 20.2 l-1.8 0 c-1.8 0 -3 -1.2 -3 -2.8 l0 -4.8 c0 -1.6 1.2 -2.8 3 -2.8 l4.1 0 l0 -3.8 l1.4 0 l0 14 l-0.9 0 l-0.2 -1.4 l-0.1 0 s-0.8 1.6 -2.5 1.6 z M209.72 19 l1.8 0 c1.5 0 2.3 -1.8 2.3 -1.8 l0 -6.2 l-4.1 0 c-0.9 0 -1.6 0.7 -1.6 1.6 l0 4.8 c0 0.9 0.7 1.6 1.6 1.6 z M226.26 12.6 c0 0.8 0.4 1.22 1.3 1.4 l2.9 0.6 c1.4 0.3 2.2 1.1 2.2 2.6 c0 1.6 -1.2 2.8 -3 2.8 l-4.9 0 l0 -1.2 l4.9 0 c0.9 0 1.6 -0.7 1.6 -1.6 c0 -0.8 -0.4 -1.22 -1.3 -1.4 l-2.9 -0.6 c-1.4 -0.28 -2.2 -1.1 -2.2 -2.6 c0 -1.62 1.2 -2.8 3 -2.8 l4.5 0 l0 0.8 l-0.4 0.4 l-4.1 0 c-0.9 0 -1.6 0.7 -1.6 1.6 z"/>
  </g>
</svg>

