<svg width="400" height="200" viewBox="-16 -16 386 186" fill="#4c5d6d" xmlns="http://www.w3.org/2000/svg">
  <g transform="matrix(1.5,0,0,1.5,100,-40)">
    <path
      d="M91.56,70.65H87.91L78,57.18a1,1,0,0,0-1.66.07l-1.79,3L58.78,38.88V33.37h4.79a1,1,0,0,0,1-1v-4a1,1,0,0,0-1-1H57.78a1,1,0,0,0-1,1V38.88L46.52,52.65,42,46.15A1,1,0,0,0,42,46.08a1,1,0,0,0-.22-0.2l-0.14-.07a1,1,0,0,0-.26-0.07l-0.1,0H41.08a1,1,0,0,0-.32.11l-0.08,0a1,1,0,0,0-.24.21L29.17,60.41l-2.65-3.27a1.1,1.1,0,0,0-.79-0.37,1,1,0,0,0-.78.4L14.78,70.65H8.44a1,1,0,0,0,0,2h72a1,1,0,0,0,0-2H77L63.26,52.81A1,1,0,0,0,61.67,54L74.51,70.65H17.29L25.77,59.4l4.82,5.94a1,1,0,0,0,1.55-1.26L30.46,62,40.54,49.2,41.85,59a1,1,0,0,0,.2.48l4.48,5.8a1,1,0,1,0,1.58-1.22L43.8,58.52l-1-7.8L47,56.91a1,1,0,0,0,1.17.37L53,55.53l2.77,2.93a1,1,0,0,0,1.46-1.37L54,53.68a1,1,0,0,0-1.07-.25l-4.7,1.71-0.52-.75,5.23-7,2.91,0.3,1.43,2.74a1,1,0,0,0,1.36.42l4.62-2.49L73.84,62.6h0l2.57,3.47A1,1,0,1,0,78,64.89L75.85,62l1.44-2.39,8.13,11.08h-1a1,1,0,0,0,0,2h7.1A1,1,0,0,0,91.56,70.65ZM58.78,29.35h3.79v2H58.78v-2ZM58.6,48.57l-1.21-2.32a1,1,0,0,0-.78-0.53l-2.26-.23,3.43-4.6,4.3,5.81Z" />
  </g>
  <g transform="matrix(2.5,0,0,2.5,0,72)">
    <path
      d="M5.82 20.26 c-3.46 0 -5.36 -1.72 -5.54 -4.54 l3.1 0 c0.06 1.04 0.66 2.08 2.52 2.08 c1.56 0 2.36 -0.62 2.36 -1.48 c0 -1.06 -1.34 -1.34 -2.9 -1.68 c-2.18 -0.52 -4.84 -1.16 -4.84 -4.42 c0 -2.4 1.86 -4.18 5.14 -4.18 c3.34 0 5.18 1.82 5.38 4.5 l-3.12 0 c-0.06 -1.1 -0.66 -1.98 -2.34 -1.98 c-1.24 0 -2.06 0.5 -2.06 1.4 c0 1.16 1.36 1.48 2.92 1.84 c2.24 0.5 4.92 1.06 4.92 4.14 c0 2.5 -1.96 4.32 -5.54 4.32 z M15.7 12.68 l4.88 -6.38 l3.62 0 l-5.44 6.84 l5.6 6.86 l-4.02 0 l-4.64 -5.84 l0 5.84 l-3.1 0 l0 -13.7 l3.1 0 l0 6.38 z M28.240000000000002 20 l-3.1 0 l0 -13.7 l3.1 0 l0 13.7 z M29.900000000000002 20 l0 -13.7 l3.1 0 l0 10.86 l6.36 0 l0 2.84 l-9.46 0 z M40.78000000000001 20 l0 -13.7 l3.1 0 l0 10.86 l6.36 0 l0 2.84 l-9.46 0 z M61.220000000000006 16.18 l-2.52 0 l0 3.82 l-3.1 0 l0 -13.7 l5.9 0 c3.12 0 4.88 2.18 4.88 4.84 c0 2.8 -1.94 5.04 -5.16 5.04 z M61.040000000000006 9.14 l-2.34 0 l0 4.2 l2.44 0 c1.32 0 2.12 -0.88 2.12 -2.12 s-0.78 -2.08 -2.22 -2.08 z M70.82000000000001 20 l-3.1 0 l0 -13.7 l3.1 0 l0 13.7 z M80.98000000000002 20 l-5.52 -8.68 l0 8.68 l-2.98 0 l0 -13.7 l3.38 0 l5.52 8.7 l0 -8.7 l2.98 0 l0 13.7 l-3.38 0 z M91.66000000000001 16.18 l-2.52 0 l0 3.82 l-3.1 0 l0 -13.7 l5.9 0 c3.12 0 4.88 2.18 4.88 4.84 c0 2.8 -1.94 5.04 -5.16 5.04 z M91.48000000000002 9.14 l-2.34 0 l0 4.2 l2.44 0 c1.32 0 2.12 -0.88 2.12 -2.12 s-0.78 -2.08 -2.22 -2.08 z M105.10000000000002 20.28 c-4 0 -7.26 -3.06 -7.26 -7.12 c0 -4.08 3.26 -7.14 7.26 -7.14 c4.1 0 7.26 3.06 7.26 7.12 c0 4.08 -3.16 7.14 -7.26 7.14 z M105.10000000000002 17.4 c2.32 0 4.1 -1.84 4.1 -4.26 c0 -2.38 -1.78 -4.24 -4.1 -4.24 s-4.1 1.86 -4.1 4.26 s1.78 4.24 4.1 4.24 z M116.82000000000002 20 l-3.1 0 l0 -13.7 l3.1 0 l0 13.7 z M126.98000000000003 20 l-5.52 -8.68 l0 8.68 l-2.98 0 l0 -13.7 l3.38 0 l5.52 8.7 l0 -8.7 l2.98 0 l0 13.7 l-3.38 0 z M138.68 20 l-3.1 0 l0 -10.86 l-4.08 0 l0 -2.84 l11.26 0 l0 2.84 l-4.08 0 l0 10.86 z" />
  </g>
  <g transform="matrix(1,0,0,1,42,128)">
    <path
      d="M3.5 7.720000000000001 l0 4.32 l4.28 0 l0 1.72 l-4.28 0 l0 6.24 l-1.8 0 l0 -14 l7.96 0 l0.12 1.72 l-6.28 0 z M14.907 20 l0 -14 l1.8 0 l0 14 l-1.8 0 z M32.234 6 l1.8 0 l0 14.2 l-0.22 0 l-9.4 -9.98 l0 9.78 l-1.78 0 l0 -14.2 l0.2 0 l9.4 9.98 l0 -9.78 z M44.761 6 c4.64 0 7.2 2.84 7.2 7 s-2.56 7 -7.2 7 l-4.8 0 l0 -14 l4.8 0 z M44.861000000000004 18.28 c3.4 0 5.3 -2.12 5.3 -5.28 c0 -3.18 -1.9 -5.28 -5.3 -5.28 l-3.1 0 l0 10.56 l3.1 0 z M65.535 6 l1.88 0 l3.08 9.54 l3.66 -9.74 l0.22 0 l3.7 9.74 l3.06 -9.54 l1.9 0 l-4.7 14.2 l-0.22 0 l-3.84 -10 l-3.86 10 l-0.2 0 z M96.502 6 l1.8 0 l0 14 l-1.8 0 l0 -6.44 l-6.94 0 l0 6.44 l-1.8 0 l0 -14 l1.8 0 l0 5.84 l6.94 0 l0 -5.84 z M113.429 20 l-1.22 -2.84 l-6.24 0 l-1.22 2.84 l-1.92 0 l6.16 -14.2 l0.2 0 l6.16 14.2 l-1.92 0 z M106.689 15.48 l4.8 0 l-2.4 -5.54 z M128.636 7.720000000000001 l-4.08 0 l0 12.28 l-1.8 0 l0 -12.28 l-4.1 0 l0.12 -1.72 l9.74 0 z M153.19 6 l-4.94 7.78 l0 6.22 l-1.8 0 l0 -6.2 l-4.96 -7.8 l2.04 0 l3.82 6.02 l3.8 -6.02 l2.04 0 z M164.497 20.2 c-4 0 -7.18 -3.2 -7.18 -7.2 s3.18 -7.2 7.18 -7.2 s7.18 3.2 7.18 7.2 s-3.18 7.2 -7.18 7.2 z M164.497 18.48 c3.04 0 5.32 -2.38 5.32 -5.48 s-2.28 -5.48 -5.32 -5.48 c-3.06 0 -5.34 2.38 -5.34 5.48 s2.28 5.48 5.34 5.48 z M176.92400000000004 14.46 l0 -8.46 l1.8 0 l0 8.32 c0 2.7 1.56 4.08 3.76 4.08 s3.78 -1.38 3.78 -4.08 l0 -8.32 l1.78 0 l0 8.46 c0 3.64 -2.08 5.74 -5.56 5.74 c-3.46 0 -5.56 -2.1 -5.56 -5.74 z M212.83800000000005 6 l1.8 0 l0 14.2 l-0.22 0 l-9.4 -9.98 l0 9.78 l-1.78 0 l0 -14.2 l0.2 0 l9.4 9.98 l0 -9.78 z M228.96500000000003 18.28 l0.12 1.72 l-8.52 0 l0 -14 l8.12 0 l0.14 1.72 l-6.46 0 l0 3.42 l4.38 0 l0 1.72 l-4.38 0 l0 5.42 l6.6 0 z M242.63200000000003 18.28 l0.12 1.72 l-8.52 0 l0 -14 l8.12 0 l0.14 1.72 l-6.46 0 l0 3.42 l4.38 0 l0 1.72 l-4.38 0 l0 5.42 l6.6 0 z M252.69900000000004 6 c4.64 0 7.2 2.84 7.2 7 s-2.56 7 -7.2 7 l-4.8 0 l0 -14 l4.8 0 z M252.79900000000004 18.28 c3.4 0 5.3 -2.12 5.3 -5.28 c0 -3.18 -1.9 -5.28 -5.3 -5.28 l-3.1 0 l0 10.56 l3.1 0 z" />
  </g>
</svg>